<?xml version="1.0" encoding="UTF-8"?>
<!DOCTYPE svg PUBLIC "-//W3C//DTD SVG 1.1//EN" "http://www.w3.org/Graphics/SVG/1.1/DTD/svg11.dtd">
<!-- Creator: CorelDRAW -->
<svg xmlns="http://www.w3.org/2000/svg" xml:space="preserve" width="31px" height="31px" style="shape-rendering:geometricPrecision; text-rendering:geometricPrecision; image-rendering:optimizeQuality; fill-rule:evenodd; clip-rule:evenodd"
viewBox="0 0 31 31"
 xmlns:xlink="http://www.w3.org/1999/xlink">
 <defs>
  <style type="text/css">
   <![CDATA[
    .fil0 {fill:#7FBA31}
    .fil1 {fill:#2B2A29;fill-rule:nonzero}
   ]]>
  </style>
 </defs>
 <g id="Capa_x0020_1">
  <metadata id="CorelCorpID_0Corel-Layer"/>
  <g>
   <path class="fil0" d="M0.687036 17.2264c-0.953629,-8.18101 4.90555,-15.5857 13.0866,-16.5394 8.18101,-0.953629 15.5857,4.90555 16.5394,13.0866 0.953629,8.18101 -4.90555,15.5857 -13.0866,16.5394 -8.18101,0.953629 -15.5857,-4.90555 -16.5394,-13.0866zm19.9558 2.62953l-5.35066 0 -5.34948 0c-0.74928,0 -1.39286,-0.371117 -1.76633,-1.0194 -0.37464,-0.649454 -0.37464,-1.39169 0,-2.03997l2.67416 -4.63309 2.67533 -4.63426c0.37464,-0.64828 1.01822,-1.0194 1.7675,-1.0194 0.748106,0 1.39169,0.371117 1.76633,1.0194l2.67416 4.63426 2.67533 4.63309c0.37464,0.64828 0.37464,1.39051 0,2.03997 -0.37464,0.64828 -1.01705,1.0194 -1.76633,1.0194z"/>
   <path id="1" class="fil1" d="M13.7055 0.103349l0.136233 1.16737 0 0 -0.730489 0.103349 -0.716396 0.138582 -0.702303 0.173814 -0.685861 0.207872 -0.670594 0.239582 -0.651803 0.268942 -0.635361 0.301826 -0.615396 0.328838 -0.596606 0.358198 -0.577815 0.386384 -0.556675 0.411047 -0.533187 0.438059 -0.512047 0.461547 -0.487384 0.485036 -0.46507 0.508524 -0.439233 0.528489 -0.41457 0.548454 -0.386384 0.568419 -0.360547 0.58721 -0.331187 0.604826 -0.301826 0.620094 -0.27364 0.635361 -0.243105 0.650629 -0.211396 0.663548 -0.179686 0.675292 -0.146803 0.687036 -0.112744 0.69878 -0.0786862 0.705827 -0.0434536 0.715222 -0.00704652 0.722269 0.0293605 0.729315 0.066942 0.735187 -1.16737 0.136233 -0.0716396 -0.793908 -0.0317093 -0.788036 0.00704652 -0.783338 0.0481512 -0.773943 0.0857327 -0.764548 0.12214 -0.755152 0.158547 -0.743408 0.193779 -0.731664 0.227838 -0.717571 0.264245 -0.704652 0.29478 -0.687036 0.327663 -0.671768 0.359373 -0.654152 0.388733 -0.634187 0.419268 -0.615396 0.447454 -0.593082 0.474466 -0.573117 0.502652 -0.548454 0.527315 -0.524966 0.554326 -0.499129 0.577815 -0.473291 0.601303 -0.44628 0.624792 -0.416919 0.645931 -0.388733 0.667071 -0.357024 0.687036 -0.325314 0.708175 -0.292431 0.724617 -0.258372 0.742234 -0.224314 0.758676 -0.187907 0.775117 -0.150326 0.78921 -0.112744 0 0zm17.1912 13.6021l-1.16737 0.136233 0 0 -0.103349 -0.730489 -0.138582 -0.716396 -0.173814 -0.702303 -0.207872 -0.685861 -0.239582 -0.670594 -0.268942 -0.651803 -0.301826 -0.635361 -0.328838 -0.615396 -0.358198 -0.596606 -0.386384 -0.577815 -0.411047 -0.556675 -0.438059 -0.533187 -0.461547 -0.512047 -0.485036 -0.487384 -0.508524 -0.46507 -0.528489 -0.439233 -0.548454 -0.41457 -0.568419 -0.386384 -0.58721 -0.360547 -0.604826 -0.331187 -0.620094 -0.301826 -0.635361 -0.27364 -0.650629 -0.243105 -0.663548 -0.211396 -0.675292 -0.179686 -0.687036 -0.146803 -0.69878 -0.112744 -0.705827 -0.0786862 -0.715222 -0.0434536 -0.722269 -0.00704652 -0.729315 0.0293605 -0.735187 0.066942 -0.136233 -1.16737 0.793908 -0.0716396 0.788036 -0.0317093 0.783338 0.00704652 0.773943 0.0481512 0.764548 0.0857327 0.755152 0.12214 0.743408 0.158547 0.731664 0.193779 0.717571 0.227838 0.704652 0.264245 0.687036 0.29478 0.671768 0.327663 0.654152 0.359373 0.634187 0.388733 0.615396 0.419268 0.593082 0.447454 0.573117 0.474466 0.548454 0.502652 0.524966 0.527315 0.499129 0.554326 0.473291 0.577815 0.44628 0.601303 0.416919 0.624792 0.388733 0.645931 0.357024 0.667071 0.325314 0.687036 0.292431 0.708175 0.258372 0.724617 0.224314 0.742234 0.187907 0.758676 0.150326 0.775117 0.112744 0.78921 0 0zm-13.6021 17.1912l-0.136233 -1.16737 0 0 0.730489 -0.103349 0.716396 -0.138582 0.702303 -0.173814 0.685861 -0.207872 0.670594 -0.239582 0.651803 -0.268942 0.635361 -0.301826 0.615396 -0.328838 0.596606 -0.358198 0.577815 -0.386384 0.556675 -0.411047 0.533187 -0.438059 0.512047 -0.461547 0.487384 -0.485036 0.46507 -0.508524 0.439233 -0.528489 0.41457 -0.548454 0.386384 -0.568419 0.360547 -0.58721 0.331187 -0.604826 0.301826 -0.620094 0.27364 -0.635361 0.243105 -0.650629 0.211396 -0.663548 0.179686 -0.675292 0.146803 -0.687036 0.112744 -0.69878 0.0786862 -0.705827 0.0434536 -0.715222 0.00704652 -0.722269 -0.0293605 -0.729315 -0.066942 -0.735187 1.16737 -0.136233 0.0716396 0.793908 0.0317093 0.788036 -0.00704652 0.783338 -0.0481512 0.773943 -0.0857327 0.764548 -0.12214 0.755152 -0.158547 0.743408 -0.193779 0.731664 -0.227838 0.717571 -0.264245 0.704652 -0.29478 0.687036 -0.327663 0.671768 -0.359373 0.654152 -0.388733 0.634187 -0.419268 0.615396 -0.447454 0.593082 -0.474466 0.573117 -0.502652 0.548454 -0.527315 0.524966 -0.554326 0.499129 -0.577815 0.473291 -0.601303 0.44628 -0.624792 0.416919 -0.645931 0.388733 -0.667071 0.357024 -0.687036 0.325314 -0.708175 0.292431 -0.724617 0.258372 -0.742234 0.224314 -0.758676 0.187907 -0.775117 0.150326 -0.78921 0.112744 0 0zm-17.1912 -13.6021l1.16737 -0.136233 0 0 0.103349 0.730489 0.138582 0.716396 0.173814 0.702303 0.207872 0.685861 0.239582 0.670594 0.268942 0.651803 0.301826 0.635361 0.328838 0.615396 0.358198 0.596606 0.386384 0.577815 0.411047 0.556675 0.438059 0.533187 0.461547 0.512047 0.485036 0.487384 0.508524 0.46507 0.528489 0.439233 0.548454 0.41457 0.568419 0.386384 0.58721 0.360547 0.604826 0.331187 0.620094 0.301826 0.635361 0.27364 0.650629 0.243105 0.663548 0.211396 0.675292 0.179686 0.687036 0.146803 0.69878 0.112744 0.705827 0.0786862 0.715222 0.0434536 0.722269 0.00704652 0.729315 -0.0293605 0.735187 -0.066942 0.136233 1.16737 -0.793908 0.0716396 -0.788036 0.0317093 -0.783338 -0.00704652 -0.773943 -0.0481512 -0.764548 -0.0857327 -0.755152 -0.12214 -0.743408 -0.158547 -0.731664 -0.193779 -0.717571 -0.227838 -0.704652 -0.264245 -0.687036 -0.29478 -0.671768 -0.327663 -0.654152 -0.359373 -0.634187 -0.388733 -0.615396 -0.419268 -0.593082 -0.447454 -0.573117 -0.474466 -0.548454 -0.502652 -0.524966 -0.527315 -0.499129 -0.554326 -0.473291 -0.577815 -0.44628 -0.601303 -0.416919 -0.624792 -0.388733 -0.645931 -0.357024 -0.667071 -0.325314 -0.687036 -0.292431 -0.708175 -0.258372 -0.724617 -0.224314 -0.742234 -0.187907 -0.758676 -0.150326 -0.775117 -0.112744 -0.78921 0 0zm15.1888 1.9742l5.35066 0 0 1.17442 -5.35066 0 0 0 0 -1.17442zm-5.34948 0l5.34948 0 0 1.17442 -5.34948 0 0 0 0 -1.17442zm-2.27485 -0.138582l1.01705 -0.58721 0 0 0.0270117 0.0458024 0.0270117 0.0422791 0.0270117 0.0387559 0.0305349 0.0411047 0.0305349 0.0399303 0.0317093 0.0375815 0.0328838 0.036407 0.0281861 0.0293605 0.0340582 0.0328838 0.0352326 0.0328838 0.0352326 0.0293605 0.0399303 0.0328838 0.0317093 0.0234884 0.036407 0.0246628 0.0422791 0.0270117 0.0375815 0.0234884 0.0387559 0.0211396 0.0434536 0.022314 0.0399303 0.0187907 0.0387559 0.0164419 0.0458024 0.0176163 0.0469768 0.0176163 0.0399303 0.0129186 0.0422791 0.0105698 0.0493257 0.0117442 0.0493257 0.0105698 0.0458024 0.00822094 0.0505001 0.00704652 0.0469768 0.0058721 0.0481512 0.00352326 0.0540233 0.00234884 0.0505001 0.00117442 0 1.17442 -0.0904304 -0.00117442 -0.0845583 -0.00469768 -0.0880815 -0.0058721 -0.0892559 -0.0105698 -0.0833838 -0.0117442 -0.0857327 -0.0152675 -0.0822094 -0.0176163 -0.0798606 -0.0187907 -0.0869071 -0.0246628 -0.0845583 -0.0270117 -0.0775117 -0.0270117 -0.0763373 -0.0293605 -0.0833838 -0.0352326 -0.0775117 -0.0375815 -0.0716396 -0.036407 -0.0763373 -0.0422791 -0.0751629 -0.044628 -0.0657675 -0.0434536 -0.0716396 -0.0481512 -0.0739885 -0.0563722 -0.0610699 -0.0493257 -0.0657675 -0.0551978 -0.0610699 -0.0563722 -0.0622443 -0.058721 -0.0634187 -0.066942 -0.0563722 -0.0645931 -0.0551978 -0.0657675 -0.0516745 -0.0657675 -0.0516745 -0.0692908 -0.0505001 -0.0739885 -0.0481512 -0.0751629 -0.0434536 -0.0739885 0 0zm0 -2.62718l1.01705 0.58721 0 0 -0.0258372 0.0458024 -0.022314 0.0434536 -0.022314 0.0481512 -0.0199651 0.0434536 -0.0176163 0.0434536 -0.0176163 0.0505001 -0.0129186 0.0387559 -0.0129186 0.0458024 -0.014093 0.0528489 -0.0105698 0.0434536 -0.00704652 0.0399303 -0.0058721 0.0481512 -0.00704652 0.0505001 -0.00352326 0.0375815 -0.00117442 0.0458024 -0.00117442 0.0481512 0.00117442 0.0493257 0.00117442 0.044628 0.00352326 0.0387559 0.0058721 0.0481512 0.00704652 0.0493257 0.00704652 0.0399303 0.0117442 0.044628 0.0129186 0.0528489 0.0129186 0.044628 0.0129186 0.0411047 0.0176163 0.0469768 0.0176163 0.044628 0.0199651 0.044628 0.022314 0.0469768 0.0234884 0.0469768 0.0246628 0.0434536 -1.01705 0.58721 -0.0434536 -0.0786862 -0.0399303 -0.0775117 -0.036407 -0.0751629 -0.036407 -0.0822094 -0.0317093 -0.0798606 -0.0293605 -0.0798606 -0.0293605 -0.0880815 -0.022314 -0.0822094 -0.0199651 -0.0763373 -0.0187907 -0.0845583 -0.0164419 -0.0892559 -0.0117442 -0.0798606 -0.0105698 -0.081035 -0.00822094 -0.0927792 -0.00352326 -0.0845583 -0.00117442 -0.0822094 0.00117442 -0.081035 0.00352326 -0.0857327 0.00822094 -0.0916048 0.00939536 -0.081035 0.0129186 -0.081035 0.0164419 -0.0892559 0.0199651 -0.0857327 0.0187907 -0.0739885 0.022314 -0.0833838 0.0293605 -0.0880815 0.0293605 -0.0763373 0.0317093 -0.0833838 0.036407 -0.081035 0.036407 -0.0763373 0.0411047 -0.0786862 0.0422791 -0.0763373 0 0zm3.6912 -4.04588l-2.67416 4.63309 -1.01705 -0.58721 2.67416 -4.63309 0 0 1.01705 0.58721zm2.67533 -4.63426l-2.67533 4.63426 -1.01705 -0.58721 2.67533 -4.63426 0 0 1.01705 0.58721zm1.25898 -1.90021l0 1.17442 0 0 -0.0505001 0.00117442 -0.0540233 0.00234884 -0.0481512 0.00352326 -0.0469768 0.0058721 -0.0505001 0.00704652 -0.0458024 0.00822094 -0.0493257 0.0105698 -0.0493257 0.0117442 -0.0434536 0.0117442 -0.0399303 0.0117442 -0.0434536 0.0164419 -0.0481512 0.0187907 -0.0387559 0.0164419 -0.0422791 0.0199651 -0.0422791 0.0211396 -0.0352326 0.0199651 -0.0399303 0.0246628 -0.0422791 0.0270117 -0.036407 0.0246628 -0.0317093 0.0234884 -0.0399303 0.0328838 -0.0387559 0.0317093 -0.0328838 0.0305349 -0.0305349 0.0293605 -0.0305349 0.0328838 -0.0328838 0.036407 -0.0340582 0.0411047 -0.0293605 0.036407 -0.0293605 0.0411047 -0.0281861 0.0387559 -0.0258372 0.0422791 -0.0281861 0.0458024 -1.01705 -0.58721 0.044628 -0.0739885 0.0469768 -0.0751629 0.0516745 -0.0739885 0.0505001 -0.0692908 0.0551978 -0.0692908 0.0528489 -0.0622443 0.0563722 -0.0645931 0.0610699 -0.0634187 0.0634187 -0.0622443 0.0657675 -0.058721 0.0622443 -0.0528489 0.0610699 -0.0493257 0.0739885 -0.0563722 0.0716396 -0.0481512 0.0657675 -0.0434536 0.0728141 -0.0434536 0.0775117 -0.0434536 0.0751629 -0.0375815 0.0751629 -0.036407 0.0833838 -0.0352326 0.0739885 -0.0281861 0.0786862 -0.0281861 0.0869071 -0.0281861 0.0857327 -0.0234884 0.0798606 -0.0187907 0.0822094 -0.0176163 0.0857327 -0.0152675 0.0833838 -0.0117442 0.0892559 -0.0105698 0.0880815 -0.0058721 0.0845583 -0.00469768 0.0904304 -0.00117442 0 0zm2.27485 1.313l-1.01705 0.58721 0 0 -0.0281861 -0.0458024 -0.0258372 -0.0422791 -0.0281861 -0.0387559 -0.0293605 -0.0411047 -0.0293605 -0.036407 -0.0340582 -0.0411047 -0.0328838 -0.036407 -0.0305349 -0.0328838 -0.0305349 -0.0293605 -0.036407 -0.0328838 -0.0340582 -0.0293605 -0.0375815 -0.0305349 -0.0375815 -0.0281861 -0.0328838 -0.022314 -0.0411047 -0.0258372 -0.0422791 -0.0258372 -0.0352326 -0.0199651 -0.0422791 -0.0211396 -0.0434536 -0.0211396 -0.0387559 -0.0164419 -0.0434536 -0.0164419 -0.044628 -0.0164419 -0.0434536 -0.014093 -0.0422791 -0.0117442 -0.0481512 -0.0105698 -0.0493257 -0.0105698 -0.044628 -0.00822094 -0.0528489 -0.00704652 -0.0458024 -0.0058721 -0.0493257 -0.00352326 -0.0540233 -0.00234884 -0.0493257 -0.00117442 0 -1.17442 0.0892559 0.00117442 0.0845583 0.00469768 0.0892559 0.0058721 0.0880815 0.0105698 0.0833838 0.0117442 0.0869071 0.0152675 0.0822094 0.0176163 0.081035 0.0199651 0.0845583 0.0234884 0.0833838 0.0258372 0.0798606 0.0281861 0.0786862 0.0305349 0.081035 0.0352326 0.0739885 0.0352326 0.0751629 0.0375815 0.0775117 0.0434536 0.0704652 0.0422791 0.0692908 0.044628 0.0728141 0.0505001 0.0681164 0.0516745 0.0657675 0.0516745 0.0645931 0.0551978 0.0622443 0.0563722 0.0634187 0.0622443 0.0610699 0.0634187 0.0563722 0.0645931 0.0528489 0.0622443 0.0551978 0.0692908 0.0505001 0.0692908 0.0516745 0.0739885 0.0469768 0.0751629 0.044628 0.0739885 0 0zm1.65711 5.22147l-2.67416 -4.63426 1.01705 -0.58721 2.67416 4.63426 -1.01705 0.58721zm2.67533 4.63309l-2.67533 -4.63309 1.01705 -0.58721 2.67533 4.63309 -1.01705 0.58721zm1.01705 2.03997l-1.01705 -0.58721 0 0 0.0246628 -0.0434536 0.0234884 -0.0469768 0.022314 -0.0469768 0.0199651 -0.044628 0.0176163 -0.044628 0.0176163 -0.0469768 0.0129186 -0.0411047 0.0129186 -0.044628 0.0129186 -0.0528489 0.0117442 -0.044628 0.00704652 -0.0399303 0.00704652 -0.0493257 0.0058721 -0.0481512 0.00352326 -0.0387559 0.00117442 -0.044628 0.00117442 -0.0493257 -0.00117442 -0.0481512 -0.00117442 -0.0458024 -0.00352326 -0.0375815 -0.00704652 -0.0505001 -0.0058721 -0.0481512 -0.00704652 -0.0399303 -0.0105698 -0.0434536 -0.014093 -0.0528489 -0.0129186 -0.0458024 -0.0129186 -0.0387559 -0.0176163 -0.0505001 -0.0176163 -0.0434536 -0.0199651 -0.0434536 -0.022314 -0.0481512 -0.022314 -0.0434536 -0.0258372 -0.0458024 1.01705 -0.58721 0.0422791 0.0763373 0.0411047 0.0786862 0.036407 0.0763373 0.036407 0.081035 0.0317093 0.0833838 0.0293605 0.0763373 0.0293605 0.0880815 0.022314 0.0833838 0.0187907 0.0739885 0.0199651 0.0857327 0.0164419 0.0892559 0.0129186 0.081035 0.00939536 0.081035 0.00822094 0.0916048 0.00352326 0.0857327 0.00117442 0.081035 -0.00117442 0.0822094 -0.00352326 0.0845583 -0.00822094 0.0927792 -0.0105698 0.081035 -0.0117442 0.0798606 -0.0164419 0.0892559 -0.0187907 0.0845583 -0.0199651 0.0763373 -0.022314 0.0822094 -0.0293605 0.0880815 -0.0293605 0.0798606 -0.0317093 0.0798606 -0.036407 0.0822094 -0.036407 0.0751629 -0.0399303 0.0775117 -0.0434536 0.0786862 0 0zm-2.27485 1.313l0 -1.17442 0 0 0.0505001 -0.00117442 0.0540233 -0.00234884 0.0481512 -0.00352326 0.0469768 -0.0058721 0.0505001 -0.00704652 0.0458024 -0.00822094 0.0493257 -0.0105698 0.0493257 -0.0117442 0.0422791 -0.0105698 0.0399303 -0.0129186 0.0469768 -0.0176163 0.0434536 -0.0164419 0.0399303 -0.0176163 0.0434536 -0.0199651 0.0411047 -0.0211396 0.036407 -0.0199651 0.0387559 -0.0246628 0.0458024 -0.0281861 0.0317093 -0.0211396 0.0328838 -0.0258372 0.0411047 -0.0328838 0.0340582 -0.0293605 0.036407 -0.0328838 0.0305349 -0.0293605 0.0305349 -0.0328838 0.0328838 -0.036407 0.0340582 -0.0411047 0.0293605 -0.036407 0.0293605 -0.0411047 0.0281861 -0.0387559 0.0258372 -0.0422791 0.0281861 -0.0458024 1.01705 0.58721 -0.044628 0.0739885 -0.0469768 0.0751629 -0.0516745 0.0739885 -0.0505001 0.0692908 -0.0551978 0.0692908 -0.0528489 0.0622443 -0.0563722 0.0645931 -0.0610699 0.0634187 -0.0634187 0.0622443 -0.0622443 0.0563722 -0.0645931 0.0551978 -0.0622443 0.0493257 -0.0704652 0.0540233 -0.0763373 0.0516745 -0.0645931 0.0422791 -0.0716396 0.0434536 -0.0786862 0.0434536 -0.0739885 0.0375815 -0.0763373 0.036407 -0.0798606 0.0340582 -0.0786862 0.0305349 -0.0775117 0.0270117 -0.0845583 0.0270117 -0.0869071 0.0246628 -0.0798606 0.0187907 -0.0822094 0.0176163 -0.0857327 0.0152675 -0.0833838 0.0117442 -0.0892559 0.0105698 -0.0880815 0.0058721 -0.0845583 0.00469768 -0.0904304 0.00117442 0 0z"/>
  </g>
 </g>
</svg>
