<?xml version="1.0" encoding="UTF-8"?>
<!DOCTYPE svg PUBLIC "-//W3C//DTD SVG 1.1//EN" "http://www.w3.org/Graphics/SVG/1.1/DTD/svg11.dtd">
<!-- Creator: CorelDRAW -->
<svg xmlns="http://www.w3.org/2000/svg" xml:space="preserve" width="30px" height="30px" style="shape-rendering:geometricPrecision; text-rendering:geometricPrecision; image-rendering:optimizeQuality; fill-rule:evenodd; clip-rule:evenodd"
viewBox="0 0 30 30"
 xmlns:xlink="http://www.w3.org/1999/xlink">
 <defs>
  <style type="text/css">
   <![CDATA[
    .fil0 {fill:#7FBA31}
    .fil1 {fill:#2B2A29;fill-rule:nonzero}
   ]]>
  </style>
 </defs>
 <g id="Capa_x0020_1">
  <metadata id="CorelCorpID_0Corel-Layer"/>
  <g>
   <path class="fil0" d="M0.102756 16.7362c-0.959055,-8.22756 4.93346,-15.6744 13.161,-16.6335 8.22756,-0.959055 15.6744,4.93346 16.6335,13.161 0.959055,8.22756 -4.93346,15.6744 -13.161,16.6335 -8.22756,0.959055 -15.6744,-4.93346 -16.6335,-13.161zm20.0693 2.64449l-5.3811 0 -5.37992 0c-0.753543,0 -1.40079,-0.373228 -1.77638,-1.0252 -0.376772,-0.65315 -0.376772,-1.39961 0,-2.05157l2.68937 -4.65945 2.69055 -4.66063c0.376772,-0.651969 1.02402,-1.0252 1.77756,-1.0252 0.752362,0 1.39961,0.373228 1.77638,1.0252l2.68937 4.66063 2.69055 4.65945c0.376772,0.651969 0.376772,1.39843 0,2.05157 -0.376772,0.651969 -1.02283,1.0252 -1.77638,1.0252z"/>
   <path id="1" class="fil1" d="M13.1953 -0.484252l0.137008 1.17402 0 0 -0.734646 0.103937 -0.720472 0.13937 -0.706299 0.174803 -0.689764 0.209055 -0.674409 0.240945 -0.655512 0.270472 -0.638976 0.303543 -0.618898 0.330709 -0.6 0.360236 -0.581102 0.388583 -0.559843 0.413386 -0.53622 0.440551 -0.514961 0.464173 -0.490157 0.487795 -0.467717 0.511417 -0.441732 0.531496 -0.416929 0.551575 -0.388583 0.571654 -0.362598 0.590551 -0.333071 0.608268 -0.303543 0.623622 -0.275197 0.638976 -0.244488 0.654331 -0.212598 0.667323 -0.180709 0.679134 -0.147638 0.690945 -0.113386 0.702756 -0.0791339 0.709843 -0.0437008 0.719291 -0.00708661 0.726378 0.0295276 0.733465 0.0673228 0.73937 -1.17402 0.137008 -0.0720472 -0.798425 -0.0318898 -0.79252 0.00708661 -0.787795 0.0484252 -0.778346 0.0862205 -0.768898 0.122835 -0.759449 0.159449 -0.747638 0.194882 -0.735827 0.229134 -0.721654 0.265748 -0.708661 0.296457 -0.690945 0.329528 -0.675591 0.361417 -0.657874 0.390945 -0.637795 0.421654 -0.618898 0.45 -0.596457 0.477165 -0.576378 0.505512 -0.551575 0.530315 -0.527953 0.55748 -0.501969 0.581102 -0.475984 0.604724 -0.448819 0.628346 -0.419291 0.649606 -0.390945 0.670866 -0.359055 0.690945 -0.327165 0.712205 -0.294094 0.72874 -0.259843 0.746457 -0.225591 0.762992 -0.188976 0.779528 -0.151181 0.793701 -0.113386 0 0zm17.289 13.6795l-1.17402 0.137008 0 0 -0.103937 -0.734646 -0.13937 -0.720472 -0.174803 -0.706299 -0.209055 -0.689764 -0.240945 -0.674409 -0.270472 -0.655512 -0.303543 -0.638976 -0.330709 -0.618898 -0.360236 -0.6 -0.388583 -0.581102 -0.413386 -0.559843 -0.440551 -0.53622 -0.464173 -0.514961 -0.487795 -0.490157 -0.511417 -0.467717 -0.531496 -0.441732 -0.551575 -0.416929 -0.571654 -0.388583 -0.590551 -0.362598 -0.608268 -0.333071 -0.623622 -0.303543 -0.638976 -0.275197 -0.654331 -0.244488 -0.667323 -0.212598 -0.679134 -0.180709 -0.690945 -0.147638 -0.702756 -0.113386 -0.709843 -0.0791339 -0.719291 -0.0437008 -0.726378 -0.00708661 -0.733465 0.0295276 -0.73937 0.0673228 -0.137008 -1.17402 0.798425 -0.0720472 0.79252 -0.0318898 0.787795 0.00708661 0.778346 0.0484252 0.768898 0.0862205 0.759449 0.122835 0.747638 0.159449 0.735827 0.194882 0.721654 0.229134 0.708661 0.265748 0.690945 0.296457 0.675591 0.329528 0.657874 0.361417 0.637795 0.390945 0.618898 0.421654 0.596457 0.45 0.576378 0.477165 0.551575 0.505512 0.527953 0.530315 0.501969 0.55748 0.475984 0.581102 0.448819 0.604724 0.419291 0.628346 0.390945 0.649606 0.359055 0.670866 0.327165 0.690945 0.294094 0.712205 0.259843 0.72874 0.225591 0.746457 0.188976 0.762992 0.151181 0.779528 0.113386 0.793701 0 0zm-13.6795 17.289l-0.137008 -1.17402 0 0 0.734646 -0.103937 0.720472 -0.13937 0.706299 -0.174803 0.689764 -0.209055 0.674409 -0.240945 0.655512 -0.270472 0.638976 -0.303543 0.618898 -0.330709 0.6 -0.360236 0.581102 -0.388583 0.559843 -0.413386 0.53622 -0.440551 0.514961 -0.464173 0.490157 -0.487795 0.467717 -0.511417 0.441732 -0.531496 0.416929 -0.551575 0.388583 -0.571654 0.362598 -0.590551 0.333071 -0.608268 0.303543 -0.623622 0.275197 -0.638976 0.244488 -0.654331 0.212598 -0.667323 0.180709 -0.679134 0.147638 -0.690945 0.113386 -0.702756 0.0791339 -0.709843 0.0437008 -0.719291 0.00708661 -0.726378 -0.0295276 -0.733465 -0.0673228 -0.73937 1.17402 -0.137008 0.0720472 0.798425 0.0318898 0.79252 -0.00708661 0.787795 -0.0484252 0.778346 -0.0862205 0.768898 -0.122835 0.759449 -0.159449 0.747638 -0.194882 0.735827 -0.229134 0.721654 -0.265748 0.708661 -0.296457 0.690945 -0.329528 0.675591 -0.361417 0.657874 -0.390945 0.637795 -0.421654 0.618898 -0.45 0.596457 -0.477165 0.576378 -0.505512 0.551575 -0.530315 0.527953 -0.55748 0.501969 -0.581102 0.475984 -0.604724 0.448819 -0.628346 0.419291 -0.649606 0.390945 -0.670866 0.359055 -0.690945 0.327165 -0.712205 0.294094 -0.72874 0.259843 -0.746457 0.225591 -0.762992 0.188976 -0.779528 0.151181 -0.793701 0.113386 0 0zm-17.289 -13.6795l1.17402 -0.137008 0 0 0.103937 0.734646 0.13937 0.720472 0.174803 0.706299 0.209055 0.689764 0.240945 0.674409 0.270472 0.655512 0.303543 0.638976 0.330709 0.618898 0.360236 0.6 0.388583 0.581102 0.413386 0.559843 0.440551 0.53622 0.464173 0.514961 0.487795 0.490157 0.511417 0.467717 0.531496 0.441732 0.551575 0.416929 0.571654 0.388583 0.590551 0.362598 0.608268 0.333071 0.623622 0.303543 0.638976 0.275197 0.654331 0.244488 0.667323 0.212598 0.679134 0.180709 0.690945 0.147638 0.702756 0.113386 0.709843 0.0791339 0.719291 0.0437008 0.726378 0.00708661 0.733465 -0.0295276 0.73937 -0.0673228 0.137008 1.17402 -0.798425 0.0720472 -0.79252 0.0318898 -0.787795 -0.00708661 -0.778346 -0.0484252 -0.768898 -0.0862205 -0.759449 -0.122835 -0.747638 -0.159449 -0.735827 -0.194882 -0.721654 -0.229134 -0.708661 -0.265748 -0.690945 -0.296457 -0.675591 -0.329528 -0.657874 -0.361417 -0.637795 -0.390945 -0.618898 -0.421654 -0.596457 -0.45 -0.576378 -0.477165 -0.551575 -0.505512 -0.527953 -0.530315 -0.501969 -0.55748 -0.475984 -0.581102 -0.448819 -0.604724 -0.419291 -0.628346 -0.390945 -0.649606 -0.359055 -0.670866 -0.327165 -0.690945 -0.294094 -0.712205 -0.259843 -0.72874 -0.225591 -0.746457 -0.188976 -0.762992 -0.151181 -0.779528 -0.113386 -0.793701 0 0zm15.2752 1.98543l5.3811 0 0 1.1811 -5.3811 0 0 0 0 -1.1811zm-5.37992 0l5.37992 0 0 1.1811 -5.37992 0 0 0 0 -1.1811zm-2.2878 -0.13937l1.02283 -0.590551 0 0 0.0271654 0.046063 0.0271654 0.0425197 0.0271654 0.0389764 0.0307087 0.0413386 0.0307087 0.0401575 0.0318898 0.0377953 0.0330709 0.0366142 0.0283465 0.0295276 0.034252 0.0330709 0.0354331 0.0330709 0.0354331 0.0295276 0.0401575 0.0330709 0.0318898 0.023622 0.0366142 0.0248031 0.0425197 0.0271654 0.0377953 0.023622 0.0389764 0.0212598 0.0437008 0.0224409 0.0401575 0.0188976 0.0389764 0.0165354 0.046063 0.0177165 0.0472441 0.0177165 0.0401575 0.0129921 0.0425197 0.0106299 0.0496063 0.011811 0.0496063 0.0106299 0.046063 0.00826772 0.0507874 0.00708661 0.0472441 0.00590551 0.0484252 0.00354331 0.0543307 0.0023622 0.0507874 0.0011811 0 1.1811 -0.0909449 -0.0011811 -0.0850394 -0.00472441 -0.0885827 -0.00590551 -0.0897638 -0.0106299 -0.0838583 -0.011811 -0.0862205 -0.0153543 -0.0826772 -0.0177165 -0.080315 -0.0188976 -0.0874016 -0.0248031 -0.0850394 -0.0271654 -0.0779528 -0.0271654 -0.0767717 -0.0295276 -0.0838583 -0.0354331 -0.0779528 -0.0377953 -0.0720472 -0.0366142 -0.0767717 -0.0425197 -0.0755906 -0.0448819 -0.0661417 -0.0437008 -0.0720472 -0.0484252 -0.0744094 -0.0566929 -0.0614173 -0.0496063 -0.0661417 -0.0555118 -0.0614173 -0.0566929 -0.0625984 -0.0590551 -0.0637795 -0.0673228 -0.0566929 -0.0649606 -0.0555118 -0.0661417 -0.0519685 -0.0661417 -0.0519685 -0.069685 -0.0507874 -0.0744094 -0.0484252 -0.0755906 -0.0437008 -0.0744094 0 0zm0 -2.64213l1.02283 0.590551 0 0 -0.0259843 0.046063 -0.0224409 0.0437008 -0.0224409 0.0484252 -0.0200787 0.0437008 -0.0177165 0.0437008 -0.0177165 0.0507874 -0.0129921 0.0389764 -0.0129921 0.046063 -0.0141732 0.0531496 -0.0106299 0.0437008 -0.00708661 0.0401575 -0.00590551 0.0484252 -0.00708661 0.0507874 -0.00354331 0.0377953 -0.0011811 0.046063 -0.0011811 0.0484252 0.0011811 0.0496063 0.0011811 0.0448819 0.00354331 0.0389764 0.00590551 0.0484252 0.00708661 0.0496063 0.00708661 0.0401575 0.011811 0.0448819 0.0129921 0.0531496 0.0129921 0.0448819 0.0129921 0.0413386 0.0177165 0.0472441 0.0177165 0.0448819 0.0200787 0.0448819 0.0224409 0.0472441 0.023622 0.0472441 0.0248031 0.0437008 -1.02283 0.590551 -0.0437008 -0.0791339 -0.0401575 -0.0779528 -0.0366142 -0.0755906 -0.0366142 -0.0826772 -0.0318898 -0.080315 -0.0295276 -0.080315 -0.0295276 -0.0885827 -0.0224409 -0.0826772 -0.0200787 -0.0767717 -0.0188976 -0.0850394 -0.0165354 -0.0897638 -0.011811 -0.080315 -0.0106299 -0.0814961 -0.00826772 -0.0933071 -0.00354331 -0.0850394 -0.0011811 -0.0826772 0.0011811 -0.0814961 0.00354331 -0.0862205 0.00826772 -0.092126 0.00944882 -0.0814961 0.0129921 -0.0814961 0.0165354 -0.0897638 0.0200787 -0.0862205 0.0188976 -0.0744094 0.0224409 -0.0838583 0.0295276 -0.0885827 0.0295276 -0.0767717 0.0318898 -0.0838583 0.0366142 -0.0814961 0.0366142 -0.0767717 0.0413386 -0.0791339 0.0425197 -0.0767717 0 0zm3.7122 -4.0689l-2.68937 4.65945 -1.02283 -0.590551 2.68937 -4.65945 0 0 1.02283 0.590551zm2.69055 -4.66063l-2.69055 4.66063 -1.02283 -0.590551 2.69055 -4.66063 0 0 1.02283 0.590551zm1.26614 -1.91102l0 1.1811 0 0 -0.0507874 0.0011811 -0.0543307 0.0023622 -0.0484252 0.00354331 -0.0472441 0.00590551 -0.0507874 0.00708661 -0.046063 0.00826772 -0.0496063 0.0106299 -0.0496063 0.011811 -0.0437008 0.011811 -0.0401575 0.011811 -0.0437008 0.0165354 -0.0484252 0.0188976 -0.0389764 0.0165354 -0.0425197 0.0200787 -0.0425197 0.0212598 -0.0354331 0.0200787 -0.0401575 0.0248031 -0.0425197 0.0271654 -0.0366142 0.0248031 -0.0318898 0.023622 -0.0401575 0.0330709 -0.0389764 0.0318898 -0.0330709 0.0307087 -0.0307087 0.0295276 -0.0307087 0.0330709 -0.0330709 0.0366142 -0.034252 0.0413386 -0.0295276 0.0366142 -0.0295276 0.0413386 -0.0283465 0.0389764 -0.0259843 0.0425197 -0.0283465 0.046063 -1.02283 -0.590551 0.0448819 -0.0744094 0.0472441 -0.0755906 0.0519685 -0.0744094 0.0507874 -0.069685 0.0555118 -0.069685 0.0531496 -0.0625984 0.0566929 -0.0649606 0.0614173 -0.0637795 0.0637795 -0.0625984 0.0661417 -0.0590551 0.0625984 -0.0531496 0.0614173 -0.0496063 0.0744094 -0.0566929 0.0720472 -0.0484252 0.0661417 -0.0437008 0.0732283 -0.0437008 0.0779528 -0.0437008 0.0755906 -0.0377953 0.0755906 -0.0366142 0.0838583 -0.0354331 0.0744094 -0.0283465 0.0791339 -0.0283465 0.0874016 -0.0283465 0.0862205 -0.023622 0.080315 -0.0188976 0.0826772 -0.0177165 0.0862205 -0.0153543 0.0838583 -0.011811 0.0897638 -0.0106299 0.0885827 -0.00590551 0.0850394 -0.00472441 0.0909449 -0.0011811 0 0zm2.2878 1.32047l-1.02283 0.590551 0 0 -0.0283465 -0.046063 -0.0259843 -0.0425197 -0.0283465 -0.0389764 -0.0295276 -0.0413386 -0.0295276 -0.0366142 -0.034252 -0.0413386 -0.0330709 -0.0366142 -0.0307087 -0.0330709 -0.0307087 -0.0295276 -0.0366142 -0.0330709 -0.034252 -0.0295276 -0.0377953 -0.0307087 -0.0377953 -0.0283465 -0.0330709 -0.0224409 -0.0413386 -0.0259843 -0.0425197 -0.0259843 -0.0354331 -0.0200787 -0.0425197 -0.0212598 -0.0437008 -0.0212598 -0.0389764 -0.0165354 -0.0437008 -0.0165354 -0.0448819 -0.0165354 -0.0437008 -0.0141732 -0.0425197 -0.011811 -0.0484252 -0.0106299 -0.0496063 -0.0106299 -0.0448819 -0.00826772 -0.0531496 -0.00708661 -0.046063 -0.00590551 -0.0496063 -0.00354331 -0.0543307 -0.0023622 -0.0496063 -0.0011811 0 -1.1811 0.0897638 0.0011811 0.0850394 0.00472441 0.0897638 0.00590551 0.0885827 0.0106299 0.0838583 0.011811 0.0874016 0.0153543 0.0826772 0.0177165 0.0814961 0.0200787 0.0850394 0.023622 0.0838583 0.0259843 0.080315 0.0283465 0.0791339 0.0307087 0.0814961 0.0354331 0.0744094 0.0354331 0.0755906 0.0377953 0.0779528 0.0437008 0.0708661 0.0425197 0.069685 0.0448819 0.0732283 0.0507874 0.0685039 0.0519685 0.0661417 0.0519685 0.0649606 0.0555118 0.0625984 0.0566929 0.0637795 0.0625984 0.0614173 0.0637795 0.0566929 0.0649606 0.0531496 0.0625984 0.0555118 0.069685 0.0507874 0.069685 0.0519685 0.0744094 0.0472441 0.0755906 0.0448819 0.0744094 0 0zm1.66654 5.25118l-2.68937 -4.66063 1.02283 -0.590551 2.68937 4.66063 -1.02283 0.590551zm2.69055 4.65945l-2.69055 -4.65945 1.02283 -0.590551 2.69055 4.65945 -1.02283 0.590551zm1.02283 2.05157l-1.02283 -0.590551 0 0 0.0248031 -0.0437008 0.023622 -0.0472441 0.0224409 -0.0472441 0.0200787 -0.0448819 0.0177165 -0.0448819 0.0177165 -0.0472441 0.0129921 -0.0413386 0.0129921 -0.0448819 0.0129921 -0.0531496 0.011811 -0.0448819 0.00708661 -0.0401575 0.00708661 -0.0496063 0.00590551 -0.0484252 0.00354331 -0.0389764 0.0011811 -0.0448819 0.0011811 -0.0496063 -0.0011811 -0.0484252 -0.0011811 -0.046063 -0.00354331 -0.0377953 -0.00708661 -0.0507874 -0.00590551 -0.0484252 -0.00708661 -0.0401575 -0.0106299 -0.0437008 -0.0141732 -0.0531496 -0.0129921 -0.046063 -0.0129921 -0.0389764 -0.0177165 -0.0507874 -0.0177165 -0.0437008 -0.0200787 -0.0437008 -0.0224409 -0.0484252 -0.0224409 -0.0437008 -0.0259843 -0.046063 1.02283 -0.590551 0.0425197 0.0767717 0.0413386 0.0791339 0.0366142 0.0767717 0.0366142 0.0814961 0.0318898 0.0838583 0.0295276 0.0767717 0.0295276 0.0885827 0.0224409 0.0838583 0.0188976 0.0744094 0.0200787 0.0862205 0.0165354 0.0897638 0.0129921 0.0814961 0.00944882 0.0814961 0.00826772 0.092126 0.00354331 0.0862205 0.0011811 0.0814961 -0.0011811 0.0826772 -0.00354331 0.0850394 -0.00826772 0.0933071 -0.0106299 0.0814961 -0.011811 0.080315 -0.0165354 0.0897638 -0.0188976 0.0850394 -0.0200787 0.0767717 -0.0224409 0.0826772 -0.0295276 0.0885827 -0.0295276 0.080315 -0.0318898 0.080315 -0.0366142 0.0826772 -0.0366142 0.0755906 -0.0401575 0.0779528 -0.0437008 0.0791339 0 0zm-2.2878 1.32047l0 -1.1811 0 0 0.0507874 -0.0011811 0.0543307 -0.0023622 0.0484252 -0.00354331 0.0472441 -0.00590551 0.0507874 -0.00708661 0.046063 -0.00826772 0.0496063 -0.0106299 0.0496063 -0.011811 0.0425197 -0.0106299 0.0401575 -0.0129921 0.0472441 -0.0177165 0.0437008 -0.0165354 0.0401575 -0.0177165 0.0437008 -0.0200787 0.0413386 -0.0212598 0.0366142 -0.0200787 0.0389764 -0.0248031 0.046063 -0.0283465 0.0318898 -0.0212598 0.0330709 -0.0259843 0.0413386 -0.0330709 0.034252 -0.0295276 0.0366142 -0.0330709 0.0307087 -0.0295276 0.0307087 -0.0330709 0.0330709 -0.0366142 0.034252 -0.0413386 0.0295276 -0.0366142 0.0295276 -0.0413386 0.0283465 -0.0389764 0.0259843 -0.0425197 0.0283465 -0.046063 1.02283 0.590551 -0.0448819 0.0744094 -0.0472441 0.0755906 -0.0519685 0.0744094 -0.0507874 0.069685 -0.0555118 0.069685 -0.0531496 0.0625984 -0.0566929 0.0649606 -0.0614173 0.0637795 -0.0637795 0.0625984 -0.0625984 0.0566929 -0.0649606 0.0555118 -0.0625984 0.0496063 -0.0708661 0.0543307 -0.0767717 0.0519685 -0.0649606 0.0425197 -0.0720472 0.0437008 -0.0791339 0.0437008 -0.0744094 0.0377953 -0.0767717 0.0366142 -0.080315 0.034252 -0.0791339 0.0307087 -0.0779528 0.0271654 -0.0850394 0.0271654 -0.0874016 0.0248031 -0.080315 0.0188976 -0.0826772 0.0177165 -0.0862205 0.0153543 -0.0838583 0.011811 -0.0897638 0.0106299 -0.0885827 0.00590551 -0.0850394 0.00472441 -0.0909449 0.0011811 0 0z"/>
  </g>
 </g>
</svg>
