<?xml version="1.0" encoding="UTF-8"?>
<!DOCTYPE svg PUBLIC "-//W3C//DTD SVG 1.1//EN" "http://www.w3.org/Graphics/SVG/1.1/DTD/svg11.dtd">
<!-- Creator: CorelDRAW -->
<svg xmlns="http://www.w3.org/2000/svg" xml:space="preserve" width="32px" height="32px" style="shape-rendering:geometricPrecision; text-rendering:geometricPrecision; image-rendering:optimizeQuality; fill-rule:evenodd; clip-rule:evenodd"
viewBox="0 0 32 32"
 xmlns:xlink="http://www.w3.org/1999/xlink">
 <defs>
  <style type="text/css">
   <![CDATA[
    .fil0 {fill:#7FBA31}
    .fil1 {fill:#2B2A29;fill-rule:nonzero}
   ]]>
  </style>
 </defs>
 <g id="Capa_x0020_1">
  <metadata id="CorelCorpID_0Corel-Layer"/>
  <g>
   <path class="fil0" d="M1.10202 17.7363c-0.959102,-8.22796 4.93371,-15.6752 13.1617,-16.6343 8.22796,-0.959102 15.6752,4.93371 16.6343,13.1617 0.959102,8.22796 -4.93371,15.6752 -13.1617,16.6343 -8.22796,0.959102 -15.6752,-4.93371 -16.6343,-13.1617zm20.0703 2.64462l-5.38137 0 -5.38019 0c-0.75358,0 -1.40086,-0.373247 -1.77647,-1.02525 -0.37679,-0.653182 -0.37679,-1.39968 0,-2.05168l2.6895 -4.65968 2.69068 -4.66086c0.37679,-0.652001 1.02407,-1.02525 1.77765,-1.02525 0.752399,0 1.39968,0.373247 1.77647,1.02525l2.6895 4.66086 2.69068 4.65968c0.37679,0.652001 0.37679,1.39849 0,2.05168 -0.37679,0.652001 -1.02288,1.02525 -1.77647,1.02525z"/>
   <path id="1" class="fil1" d="M14.1952 0.514986l0.137015 1.17407 0 0 -0.734682 0.103942 -0.720508 0.139377 -0.706334 0.174812 -0.689798 0.209065 -0.674443 0.240957 -0.655544 0.270486 -0.639008 0.303558 -0.618928 0.330725 -0.60003 0.360254 -0.581131 0.388602 -0.55987 0.413406 -0.536247 0.440573 -0.514986 0.464196 -0.490182 0.487819 -0.46774 0.511442 -0.441754 0.531522 -0.41695 0.551602 -0.388602 0.571682 -0.362616 0.59058 -0.333087 0.608298 -0.303558 0.623653 -0.27521 0.639008 -0.2445 0.654363 -0.212609 0.667356 -0.180718 0.679167 -0.147645 0.690979 -0.113391 0.70279 -0.0791378 0.709877 -0.0437029 0.719327 -0.00708696 0.726414 0.029529 0.733501 0.0673261 0.739406 -1.17407 0.137015 -0.0720508 -0.798464 -0.0318913 -0.792559 0.00708696 -0.787834 0.0484276 -0.778385 0.0862247 -0.768935 0.122841 -0.759486 0.159457 -0.747675 0.194891 -0.735863 0.229145 -0.721689 0.265761 -0.708696 0.296471 -0.690979 0.329544 -0.675624 0.361435 -0.657906 0.390964 -0.637827 0.421674 -0.618928 0.450022 -0.596486 0.477189 -0.576406 0.505537 -0.551602 0.530341 -0.527979 0.557508 -0.501993 0.581131 -0.476008 0.604754 -0.448841 0.628377 -0.419312 0.649638 -0.390964 0.670899 -0.359073 0.690979 -0.327181 0.71224 -0.294109 0.728776 -0.259855 0.746493 -0.225602 0.76303 -0.188986 0.779566 -0.151189 0.79374 -0.113391 0 0zm17.2898 13.6802l-1.17407 0.137015 0 0 -0.103942 -0.734682 -0.139377 -0.720508 -0.174812 -0.706334 -0.209065 -0.689798 -0.240957 -0.674443 -0.270486 -0.655544 -0.303558 -0.639008 -0.330725 -0.618928 -0.360254 -0.60003 -0.388602 -0.581131 -0.413406 -0.55987 -0.440573 -0.536247 -0.464196 -0.514986 -0.487819 -0.490182 -0.511442 -0.46774 -0.531522 -0.441754 -0.551602 -0.41695 -0.571682 -0.388602 -0.59058 -0.362616 -0.608298 -0.333087 -0.623653 -0.303558 -0.639008 -0.27521 -0.654363 -0.2445 -0.667356 -0.212609 -0.679167 -0.180718 -0.690979 -0.147645 -0.70279 -0.113391 -0.709877 -0.0791378 -0.719327 -0.0437029 -0.726414 -0.00708696 -0.733501 0.029529 -0.739406 0.0673261 -0.137015 -1.17407 0.798464 -0.0720508 0.792559 -0.0318913 0.787834 0.00708696 0.778385 0.0484276 0.768935 0.0862247 0.759486 0.122841 0.747675 0.159457 0.735863 0.194891 0.721689 0.229145 0.708696 0.265761 0.690979 0.296471 0.675624 0.329544 0.657906 0.361435 0.637827 0.390964 0.618928 0.421674 0.596486 0.450022 0.576406 0.477189 0.551602 0.505537 0.527979 0.530341 0.501993 0.557508 0.476008 0.581131 0.448841 0.604754 0.419312 0.628377 0.390964 0.649638 0.359073 0.670899 0.327181 0.690979 0.294109 0.71224 0.259855 0.728776 0.225602 0.746493 0.188986 0.76303 0.151189 0.779566 0.113391 0.79374 0 0zm-13.6802 17.2898l-0.137015 -1.17407 0 0 0.734682 -0.103942 0.720508 -0.139377 0.706334 -0.174812 0.689798 -0.209065 0.674443 -0.240957 0.655544 -0.270486 0.639008 -0.303558 0.618928 -0.330725 0.60003 -0.360254 0.581131 -0.388602 0.55987 -0.413406 0.536247 -0.440573 0.514986 -0.464196 0.490182 -0.487819 0.46774 -0.511442 0.441754 -0.531522 0.41695 -0.551602 0.388602 -0.571682 0.362616 -0.59058 0.333087 -0.608298 0.303558 -0.623653 0.27521 -0.639008 0.2445 -0.654363 0.212609 -0.667356 0.180718 -0.679167 0.147645 -0.690979 0.113391 -0.70279 0.0791378 -0.709877 0.0437029 -0.719327 0.00708696 -0.726414 -0.029529 -0.733501 -0.0673261 -0.739406 1.17407 -0.137015 0.0720508 0.798464 0.0318913 0.792559 -0.00708696 0.787834 -0.0484276 0.778385 -0.0862247 0.768935 -0.122841 0.759486 -0.159457 0.747675 -0.194891 0.735863 -0.229145 0.721689 -0.265761 0.708696 -0.296471 0.690979 -0.329544 0.675624 -0.361435 0.657906 -0.390964 0.637827 -0.421674 0.618928 -0.450022 0.596486 -0.477189 0.576406 -0.505537 0.551602 -0.530341 0.527979 -0.557508 0.501993 -0.581131 0.476008 -0.604754 0.448841 -0.628377 0.419312 -0.649638 0.390964 -0.670899 0.359073 -0.690979 0.327181 -0.71224 0.294109 -0.728776 0.259855 -0.746493 0.225602 -0.76303 0.188986 -0.779566 0.151189 -0.79374 0.113391 0 0zm-17.2898 -13.6802l1.17407 -0.137015 0 0 0.103942 0.734682 0.139377 0.720508 0.174812 0.706334 0.209065 0.689798 0.240957 0.674443 0.270486 0.655544 0.303558 0.639008 0.330725 0.618928 0.360254 0.60003 0.388602 0.581131 0.413406 0.55987 0.440573 0.536247 0.464196 0.514986 0.487819 0.490182 0.511442 0.46774 0.531522 0.441754 0.551602 0.41695 0.571682 0.388602 0.59058 0.362616 0.608298 0.333087 0.623653 0.303558 0.639008 0.27521 0.654363 0.2445 0.667356 0.212609 0.679167 0.180718 0.690979 0.147645 0.70279 0.113391 0.709877 0.0791378 0.719327 0.0437029 0.726414 0.00708696 0.733501 -0.029529 0.739406 -0.0673261 0.137015 1.17407 -0.798464 0.0720508 -0.792559 0.0318913 -0.787834 -0.00708696 -0.778385 -0.0484276 -0.768935 -0.0862247 -0.759486 -0.122841 -0.747675 -0.159457 -0.735863 -0.194891 -0.721689 -0.229145 -0.708696 -0.265761 -0.690979 -0.296471 -0.675624 -0.329544 -0.657906 -0.361435 -0.637827 -0.390964 -0.618928 -0.421674 -0.596486 -0.450022 -0.576406 -0.477189 -0.551602 -0.505537 -0.527979 -0.530341 -0.501993 -0.557508 -0.476008 -0.581131 -0.448841 -0.604754 -0.419312 -0.628377 -0.390964 -0.649638 -0.359073 -0.670899 -0.327181 -0.690979 -0.294109 -0.71224 -0.259855 -0.728776 -0.225602 -0.746493 -0.188986 -0.76303 -0.151189 -0.779566 -0.113391 -0.79374 0 0zm15.2759 1.98553l5.38137 0 0 1.18116 -5.38137 0 0 0 0 -1.18116zm-5.38019 0l5.38019 0 0 1.18116 -5.38019 0 0 0 0 -1.18116zm-2.28791 -0.139377l1.02288 -0.59058 0 0 0.0271667 0.0460653 0.0271667 0.0425218 0.0271667 0.0389783 0.0307102 0.0413406 0.0307102 0.0401595 0.0318913 0.0377971 0.0330725 0.036616 0.0283479 0.029529 0.0342537 0.0330725 0.0354348 0.0330725 0.0354348 0.029529 0.0401595 0.0330725 0.0318913 0.0236232 0.036616 0.0248044 0.0425218 0.0271667 0.0377971 0.0236232 0.0389783 0.0212609 0.0437029 0.022442 0.0401595 0.0188986 0.0389783 0.0165362 0.0460653 0.0177174 0.0472464 0.0177174 0.0401595 0.0129928 0.0425218 0.0106304 0.0496087 0.0118116 0.0496087 0.0106304 0.0460653 0.00826812 0.0507899 0.00708696 0.0472464 0.0059058 0.0484276 0.00354348 0.0543334 0.00236232 0.0507899 0.00118116 0 1.18116 -0.0909494 -0.00118116 -0.0850436 -0.00472464 -0.088587 -0.0059058 -0.0897682 -0.0106304 -0.0838624 -0.0118116 -0.0862247 -0.0153551 -0.0826812 -0.0177174 -0.0803189 -0.0188986 -0.0874059 -0.0248044 -0.0850436 -0.0271667 -0.0779566 -0.0271667 -0.0767754 -0.029529 -0.0838624 -0.0354348 -0.0779566 -0.0377971 -0.0720508 -0.036616 -0.0767754 -0.0425218 -0.0755943 -0.0448841 -0.066145 -0.0437029 -0.0720508 -0.0484276 -0.0744131 -0.0566957 -0.0614203 -0.0496087 -0.066145 -0.0555145 -0.0614203 -0.0566957 -0.0626015 -0.059058 -0.0637827 -0.0673261 -0.0566957 -0.0649638 -0.0555145 -0.066145 -0.0519711 -0.066145 -0.0519711 -0.0696885 -0.0507899 -0.0744131 -0.0484276 -0.0755943 -0.0437029 -0.0744131 0 0zm0 -2.64226l1.02288 0.59058 0 0 -0.0259855 0.0460653 -0.022442 0.0437029 -0.022442 0.0484276 -0.0200797 0.0437029 -0.0177174 0.0437029 -0.0177174 0.0507899 -0.0129928 0.0389783 -0.0129928 0.0460653 -0.0141739 0.0531522 -0.0106304 0.0437029 -0.00708696 0.0401595 -0.0059058 0.0484276 -0.00708696 0.0507899 -0.00354348 0.0377971 -0.00118116 0.0460653 -0.00118116 0.0484276 0.00118116 0.0496087 0.00118116 0.0448841 0.00354348 0.0389783 0.0059058 0.0484276 0.00708696 0.0496087 0.00708696 0.0401595 0.0118116 0.0448841 0.0129928 0.0531522 0.0129928 0.0448841 0.0129928 0.0413406 0.0177174 0.0472464 0.0177174 0.0448841 0.0200797 0.0448841 0.022442 0.0472464 0.0236232 0.0472464 0.0248044 0.0437029 -1.02288 0.59058 -0.0437029 -0.0791378 -0.0401595 -0.0779566 -0.036616 -0.0755943 -0.036616 -0.0826812 -0.0318913 -0.0803189 -0.029529 -0.0803189 -0.029529 -0.088587 -0.022442 -0.0826812 -0.0200797 -0.0767754 -0.0188986 -0.0850436 -0.0165362 -0.0897682 -0.0118116 -0.0803189 -0.0106304 -0.0815001 -0.00826812 -0.0933117 -0.00354348 -0.0850436 -0.00118116 -0.0826812 0.00118116 -0.0815001 0.00354348 -0.0862247 0.00826812 -0.0921305 0.00944928 -0.0815001 0.0129928 -0.0815001 0.0165362 -0.0897682 0.0200797 -0.0862247 0.0188986 -0.0744131 0.022442 -0.0838624 0.029529 -0.088587 0.029529 -0.0767754 0.0318913 -0.0838624 0.036616 -0.0815001 0.036616 -0.0767754 0.0413406 -0.0791378 0.0425218 -0.0767754 0 0zm3.71239 -4.0691l-2.6895 4.65968 -1.02288 -0.59058 2.6895 -4.65968 0 0 1.02288 0.59058zm2.69068 -4.66086l-2.69068 4.66086 -1.02288 -0.59058 2.69068 -4.66086 0 0 1.02288 0.59058zm1.2662 -1.91112l0 1.18116 0 0 -0.0507899 0.00118116 -0.0543334 0.00236232 -0.0484276 0.00354348 -0.0472464 0.0059058 -0.0507899 0.00708696 -0.0460653 0.00826812 -0.0496087 0.0106304 -0.0496087 0.0118116 -0.0437029 0.0118116 -0.0401595 0.0118116 -0.0437029 0.0165362 -0.0484276 0.0188986 -0.0389783 0.0165362 -0.0425218 0.0200797 -0.0425218 0.0212609 -0.0354348 0.0200797 -0.0401595 0.0248044 -0.0425218 0.0271667 -0.036616 0.0248044 -0.0318913 0.0236232 -0.0401595 0.0330725 -0.0389783 0.0318913 -0.0330725 0.0307102 -0.0307102 0.029529 -0.0307102 0.0330725 -0.0330725 0.036616 -0.0342537 0.0413406 -0.029529 0.036616 -0.029529 0.0413406 -0.0283479 0.0389783 -0.0259855 0.0425218 -0.0283479 0.0460653 -1.02288 -0.59058 0.0448841 -0.0744131 0.0472464 -0.0755943 0.0519711 -0.0744131 0.0507899 -0.0696885 0.0555145 -0.0696885 0.0531522 -0.0626015 0.0566957 -0.0649638 0.0614203 -0.0637827 0.0637827 -0.0626015 0.066145 -0.059058 0.0626015 -0.0531522 0.0614203 -0.0496087 0.0744131 -0.0566957 0.0720508 -0.0484276 0.066145 -0.0437029 0.073232 -0.0437029 0.0779566 -0.0437029 0.0755943 -0.0377971 0.0755943 -0.036616 0.0838624 -0.0354348 0.0744131 -0.0283479 0.0791378 -0.0283479 0.0874059 -0.0283479 0.0862247 -0.0236232 0.0803189 -0.0188986 0.0826812 -0.0177174 0.0862247 -0.0153551 0.0838624 -0.0118116 0.0897682 -0.0106304 0.088587 -0.0059058 0.0850436 -0.00472464 0.0909494 -0.00118116 0 0zm2.28791 1.32054l-1.02288 0.59058 0 0 -0.0283479 -0.0460653 -0.0259855 -0.0425218 -0.0283479 -0.0389783 -0.029529 -0.0413406 -0.029529 -0.036616 -0.0342537 -0.0413406 -0.0330725 -0.036616 -0.0307102 -0.0330725 -0.0307102 -0.029529 -0.036616 -0.0330725 -0.0342537 -0.029529 -0.0377971 -0.0307102 -0.0377971 -0.0283479 -0.0330725 -0.022442 -0.0413406 -0.0259855 -0.0425218 -0.0259855 -0.0354348 -0.0200797 -0.0425218 -0.0212609 -0.0437029 -0.0212609 -0.0389783 -0.0165362 -0.0437029 -0.0165362 -0.0448841 -0.0165362 -0.0437029 -0.0141739 -0.0425218 -0.0118116 -0.0484276 -0.0106304 -0.0496087 -0.0106304 -0.0448841 -0.00826812 -0.0531522 -0.00708696 -0.0460653 -0.0059058 -0.0496087 -0.00354348 -0.0543334 -0.00236232 -0.0496087 -0.00118116 0 -1.18116 0.0897682 0.00118116 0.0850436 0.00472464 0.0897682 0.0059058 0.088587 0.0106304 0.0838624 0.0118116 0.0874059 0.0153551 0.0826812 0.0177174 0.0815001 0.0200797 0.0850436 0.0236232 0.0838624 0.0259855 0.0803189 0.0283479 0.0791378 0.0307102 0.0815001 0.0354348 0.0744131 0.0354348 0.0755943 0.0377971 0.0779566 0.0437029 0.0708696 0.0425218 0.0696885 0.0448841 0.073232 0.0507899 0.0685073 0.0519711 0.066145 0.0519711 0.0649638 0.0555145 0.0626015 0.0566957 0.0637827 0.0626015 0.0614203 0.0637827 0.0566957 0.0649638 0.0531522 0.0626015 0.0555145 0.0696885 0.0507899 0.0696885 0.0519711 0.0744131 0.0472464 0.0755943 0.0448841 0.0744131 0 0zm1.66662 5.25144l-2.6895 -4.66086 1.02288 -0.59058 2.6895 4.66086 -1.02288 0.59058zm2.69068 4.65968l-2.69068 -4.65968 1.02288 -0.59058 2.69068 4.65968 -1.02288 0.59058zm1.02288 2.05168l-1.02288 -0.59058 0 0 0.0248044 -0.0437029 0.0236232 -0.0472464 0.022442 -0.0472464 0.0200797 -0.0448841 0.0177174 -0.0448841 0.0177174 -0.0472464 0.0129928 -0.0413406 0.0129928 -0.0448841 0.0129928 -0.0531522 0.0118116 -0.0448841 0.00708696 -0.0401595 0.00708696 -0.0496087 0.0059058 -0.0484276 0.00354348 -0.0389783 0.00118116 -0.0448841 0.00118116 -0.0496087 -0.00118116 -0.0484276 -0.00118116 -0.0460653 -0.00354348 -0.0377971 -0.00708696 -0.0507899 -0.0059058 -0.0484276 -0.00708696 -0.0401595 -0.0106304 -0.0437029 -0.0141739 -0.0531522 -0.0129928 -0.0460653 -0.0129928 -0.0389783 -0.0177174 -0.0507899 -0.0177174 -0.0437029 -0.0200797 -0.0437029 -0.022442 -0.0484276 -0.022442 -0.0437029 -0.0259855 -0.0460653 1.02288 -0.59058 0.0425218 0.0767754 0.0413406 0.0791378 0.036616 0.0767754 0.036616 0.0815001 0.0318913 0.0838624 0.029529 0.0767754 0.029529 0.088587 0.022442 0.0838624 0.0188986 0.0744131 0.0200797 0.0862247 0.0165362 0.0897682 0.0129928 0.0815001 0.00944928 0.0815001 0.00826812 0.0921305 0.00354348 0.0862247 0.00118116 0.0815001 -0.00118116 0.0826812 -0.00354348 0.0850436 -0.00826812 0.0933117 -0.0106304 0.0815001 -0.0118116 0.0803189 -0.0165362 0.0897682 -0.0188986 0.0850436 -0.0200797 0.0767754 -0.022442 0.0826812 -0.029529 0.088587 -0.029529 0.0803189 -0.0318913 0.0803189 -0.036616 0.0826812 -0.036616 0.0755943 -0.0401595 0.0779566 -0.0437029 0.0791378 0 0zm-2.28791 1.32054l0 -1.18116 0 0 0.0507899 -0.00118116 0.0543334 -0.00236232 0.0484276 -0.00354348 0.0472464 -0.0059058 0.0507899 -0.00708696 0.0460653 -0.00826812 0.0496087 -0.0106304 0.0496087 -0.0118116 0.0425218 -0.0106304 0.0401595 -0.0129928 0.0472464 -0.0177174 0.0437029 -0.0165362 0.0401595 -0.0177174 0.0437029 -0.0200797 0.0413406 -0.0212609 0.036616 -0.0200797 0.0389783 -0.0248044 0.0460653 -0.0283479 0.0318913 -0.0212609 0.0330725 -0.0259855 0.0413406 -0.0330725 0.0342537 -0.029529 0.036616 -0.0330725 0.0307102 -0.029529 0.0307102 -0.0330725 0.0330725 -0.036616 0.0342537 -0.0413406 0.029529 -0.036616 0.029529 -0.0413406 0.0283479 -0.0389783 0.0259855 -0.0425218 0.0283479 -0.0460653 1.02288 0.59058 -0.0448841 0.0744131 -0.0472464 0.0755943 -0.0519711 0.0744131 -0.0507899 0.0696885 -0.0555145 0.0696885 -0.0531522 0.0626015 -0.0566957 0.0649638 -0.0614203 0.0637827 -0.0637827 0.0626015 -0.0626015 0.0566957 -0.0649638 0.0555145 -0.0626015 0.0496087 -0.0708696 0.0543334 -0.0767754 0.0519711 -0.0649638 0.0425218 -0.0720508 0.0437029 -0.0791378 0.0437029 -0.0744131 0.0377971 -0.0767754 0.036616 -0.0803189 0.0342537 -0.0791378 0.0307102 -0.0779566 0.0271667 -0.0850436 0.0271667 -0.0874059 0.0248044 -0.0803189 0.0188986 -0.0826812 0.0177174 -0.0862247 0.0153551 -0.0838624 0.0118116 -0.0897682 0.0106304 -0.088587 0.0059058 -0.0850436 0.00472464 -0.0909494 0.00118116 0 0z"/>
  </g>
 </g>
</svg>
