<?xml version="1.0" encoding="UTF-8"?>
<!DOCTYPE svg PUBLIC "-//W3C//DTD SVG 1.1//EN" "http://www.w3.org/Graphics/SVG/1.1/DTD/svg11.dtd">
<!-- Creator: CorelDRAW -->
<svg xmlns="http://www.w3.org/2000/svg" xml:space="preserve" width="179px" height="179px" style="shape-rendering:geometricPrecision; text-rendering:geometricPrecision; image-rendering:optimizeQuality; fill-rule:evenodd; clip-rule:evenodd"
viewBox="0 0 22.6035 22.6035"
 xmlns:xlink="http://www.w3.org/1999/xlink">
 <defs>
  <style type="text/css">
   <![CDATA[
    .str0 {stroke:#606060;stroke-width:0.747355}
    .fil0 {fill:#9D9E9E}
   ]]>
  </style>
 </defs>
 <g id="Capa_x0020_1">
  <metadata id="CorelCorpID_0Corel-Layer"/>
  <path class="fil0 str0" d="M0.446919 12.5666c-0.698478,-5.99484 3.59493,-11.4209 9.58977,-12.1197 5.99514,-0.698628 11.4212,3.59493 12.1199,9.58977 0.698628,5.99469 -3.59478,11.4211 -9.58962,12.1197 -5.99499,0.698777 -11.4214,-3.59463 -12.12,-9.58977zm14.6235 1.92728l-3.92063 0.000149471 -3.92063 0c-0.548858,0 -1.01999,-0.272187 -1.29442,-0.747505 -0.274279,-0.475318 -0.274279,-1.01939 0,-1.49471l1.96031 -3.39524 1.96046 -3.39539c0.274279,-0.475318 0.745562,-0.747355 1.29442,-0.747355 0.548858,0 1.01999,0.272037 1.29442,0.747355l1.96031 3.39539 1.96016 3.39524c0.274429,0.475318 0.274429,1.01939 0.000298942,1.49471 -0.274578,0.475468 -0.745861,0.747355 -1.29472,0.747355z"/>
 </g>
</svg>
