<?xml version="1.0" encoding="UTF-8"?>
<!DOCTYPE svg PUBLIC "-//W3C//DTD SVG 1.1//EN" "http://www.w3.org/Graphics/SVG/1.1/DTD/svg11.dtd">
<!-- Creator: CorelDRAW -->
<svg xmlns="http://www.w3.org/2000/svg" xml:space="preserve" width="179px" height="179px" style="shape-rendering:geometricPrecision; text-rendering:geometricPrecision; image-rendering:optimizeQuality; fill-rule:evenodd; clip-rule:evenodd"
viewBox="0 0 17.2778 17.2778"
 xmlns:xlink="http://www.w3.org/1999/xlink">
 <defs>
  <style type="text/css">
   <![CDATA[
    .str0 {stroke:#606060;stroke-width:0.571315}
    .fil0 {fill:#7FBA31}
   ]]>
  </style>
 </defs>
 <g id="Capa_x0020_1">
  <metadata id="CorelCorpID_0Corel-Layer"/>
  <path class="fil0 str0" d="M15.8738 4.46197c2.30685,3.99566 0.93787,9.10493 -3.05779,11.4118 -3.99578,2.30697 -9.10504,0.93787 -11.4119,-3.05779 -2.30697,-3.99566 -0.93787,-9.10493 3.05779,-11.4119 3.99566,-2.30685 9.10493,-0.93787 11.4119,3.05791zm-4.35365 6.61731l-2.99712 0.000114263 -2.99712 0c-0.419574,0 -0.779845,-0.208073 -0.989517,-0.571543 -0.209787,-0.363242 -0.209787,-0.779159 -0.000114263,-1.14252l1.49867 -2.59548 1.49856 -2.5956c0.209787,-0.363356 0.569944,-0.571315 0.989517,-0.571315 0.419574,0 0.77973,0.207959 0.989517,0.571315l1.49856 2.5956 1.49856 2.59548c0.209787,0.363356 0.209787,0.779273 0.000114263,1.14263 -0.209901,0.36347 -0.570172,0.571315 -0.989631,0.571315z"/>
 </g>
</svg>
