<?xml version="1.0" encoding="UTF-8"?>
<!DOCTYPE svg PUBLIC "-//W3C//DTD SVG 1.1//EN" "http://www.w3.org/Graphics/SVG/1.1/DTD/svg11.dtd">
<!-- Creator: CorelDRAW -->
<svg xmlns="http://www.w3.org/2000/svg" xml:space="preserve" width="31px" height="31px" style="shape-rendering:geometricPrecision; text-rendering:geometricPrecision; image-rendering:optimizeQuality; fill-rule:evenodd; clip-rule:evenodd"
viewBox="0 0 10.4907 10.4907"
 xmlns:xlink="http://www.w3.org/1999/xlink">
 <defs>
  <style type="text/css">
   <![CDATA[
    .fil0 {fill:#9D9E9E}
    .fil1 {fill:#2B2A29;fill-rule:nonzero}
   ]]>
  </style>
 </defs>
 <g id="Capa_x0020_1">
  <metadata id="CorelCorpID_0Corel-Layer"/>
  <g>
   <path class="fil0" d="M0.2325 5.82959c-0.322321,-2.76854 1.66049,-5.27437 4.42863,-5.59709 2.76894,-0.322718 5.27477,1.66009 5.59709,4.42863 0.322718,2.76854 -1.66009,5.27437 -4.42823,5.59709 -2.76894,0.322718 -5.27477,-1.66009 -5.59749,-4.42863zm6.75363 0.889859l-1.81072 0 -1.81072 0c-0.253564,0 -0.470962,-0.12559 -0.597744,-0.344974 -0.126782,-0.219782 -0.126782,-0.470962 0,-0.690346l0.905359 -1.56788 0.905359 -1.56828c0.126782,-0.219385 0.344179,-0.344974 0.597744,-0.344974 0.253564,0 0.470962,0.12559 0.597744,0.344974l0.905359 1.56828 0.905359 1.56788c0.126385,0.219385 0.126385,0.470564 0,0.690346 -0.126782,0.219385 -0.344577,0.344974 -0.597744,0.344974z"/>
   <path id="1" class="fil1" d="M4.63808 0.0349744l0.0461026 0.395051 0 0 -0.247205 0.0349744 -0.242436 0.0468974 -0.237667 0.0588205 -0.232103 0.0703462 -0.226538 0.0810769 -0.220577 0.0910128 -0.215013 0.102141 -0.208256 0.111282 -0.202295 0.121218 -0.195141 0.130756 -0.188385 0.139103 -0.180436 0.148244 -0.173282 0.156192 -0.165333 0.164141 -0.156987 0.171692 -0.148641 0.179244 -0.140295 0.185603 -0.130756 0.192359 -0.122013 0.198718 -0.112077 0.204679 -0.102936 0.210244 -0.0922051 0.214615 -0.0818718 0.220179 -0.0715385 0.224551 -0.0612051 0.228923 -0.0496795 0.232103 -0.0381538 0.236474 -0.0266282 0.238859 -0.0143077 0.242038 -0.00278205 0.244821 0.0099359 0.24641 0.0226538 0.248795 -0.395051 0.0461026 -0.0242436 -0.268667 -0.0107308 -0.267077 0.00278205 -0.264692 0.0158974 -0.26191 0.0290128 -0.258731 0.0413333 -0.255551 0.0536538 -0.251974 0.0659744 -0.247205 0.0771026 -0.242833 0.0890256 -0.238462 0.100154 -0.232897 0.110885 -0.226936 0.121615 -0.221372 0.131551 -0.214615 0.141885 -0.208256 0.151423 -0.200705 0.160564 -0.193551 0.169705 -0.186 0.178846 -0.177654 0.18759 -0.16891 0.195538 -0.160167 0.203487 -0.151026 0.211038 -0.14109 0.218987 -0.131551 0.225744 -0.120821 0.2325 -0.11009 0.238859 -0.0989615 0.245615 -0.0874359 0.251179 -0.0759103 0.256744 -0.0635897 0.262308 -0.0508718 0.267077 -0.0381538 0 0zm5.81767 4.6031l-0.395051 0.0461026 0 0 -0.0349744 -0.247205 -0.0468974 -0.242436 -0.0588205 -0.237667 -0.0699487 -0.232103 -0.0810769 -0.226538 -0.0914103 -0.220974 -0.101744 -0.215013 -0.111679 -0.208256 -0.121218 -0.202295 -0.130359 -0.195141 -0.1395 -0.188385 -0.147846 -0.180436 -0.15659 -0.173282 -0.164141 -0.164936 -0.171692 -0.157385 -0.178846 -0.148641 -0.186 -0.140295 -0.192359 -0.130756 -0.198718 -0.122013 -0.204282 -0.112077 -0.209846 -0.102141 -0.21541 -0.0926026 -0.220179 -0.0822692 -0.224154 -0.0715385 -0.228923 -0.0608077 -0.2325 -0.0496795 -0.236077 -0.0381538 -0.239256 -0.0266282 -0.242038 -0.0147051 -0.244423 -0.00238462 -0.246808 0.0099359 -0.248795 0.0226538 -0.0461026 -0.395051 0.268667 -0.0242436 0.266679 -0.0107308 0.26509 0.00238462 0.26191 0.0162949 0.259128 0.0290128 0.255154 0.0413333 0.251577 0.0536538 0.248 0.0655769 0.243231 0.0771026 0.237667 0.0894231 0.232897 0.0997564 0.227333 0.110885 0.220974 0.121615 0.214615 0.131551 0.208256 0.141885 0.201103 0.151423 0.193949 0.160564 0.185205 0.170103 0.177654 0.178449 0.169308 0.18759 0.159769 0.195538 0.151423 0.203487 0.140692 0.211833 0.131551 0.218192 0.121218 0.225744 0.109692 0.2325 0.099359 0.239256 0.0874359 0.245615 0.0755128 0.251179 0.0635897 0.256744 0.0508718 0.262308 0.0381538 0.267077 0 0zm-4.60271 5.81767l-0.0461026 -0.395051 0 0 0.247205 -0.0349744 0.242436 -0.0468974 0.237667 -0.0588205 0.232103 -0.0703462 0.226538 -0.0810769 0.220577 -0.0910128 0.215013 -0.102141 0.208256 -0.111282 0.202295 -0.121218 0.195141 -0.130756 0.188385 -0.139103 0.180436 -0.148244 0.173282 -0.156192 0.165333 -0.164141 0.156987 -0.171692 0.148641 -0.179244 0.140295 -0.185603 0.130756 -0.192359 0.122013 -0.198718 0.112077 -0.204679 0.102141 -0.209846 0.0926026 -0.215013 0.0822692 -0.220179 0.0715385 -0.224551 0.0608077 -0.228526 0.0496795 -0.2325 0.0381538 -0.236474 0.0266282 -0.238859 0.0147051 -0.242038 0.00238462 -0.244423 -0.0099359 -0.246808 -0.0226538 -0.248795 0.395051 -0.0461026 0.0242436 0.268667 0.0107308 0.266679 -0.00238462 0.26509 -0.0162949 0.26191 -0.0290128 0.258731 -0.0413333 0.255551 -0.0536538 0.251577 -0.0655769 0.247603 -0.0771026 0.242833 -0.0894231 0.238462 -0.0997564 0.2325 -0.110885 0.227333 -0.121615 0.221372 -0.131551 0.214615 -0.141885 0.208256 -0.151423 0.200705 -0.160564 0.193551 -0.169705 0.186 -0.178846 0.177654 -0.18759 0.16891 -0.195538 0.160167 -0.203487 0.151026 -0.211038 0.14109 -0.218987 0.131551 -0.225744 0.120821 -0.2325 0.11009 -0.238859 0.0989615 -0.245615 0.0874359 -0.251179 0.0759103 -0.256744 0.0635897 -0.262308 0.0508718 -0.267077 0.0381538 0 0zm-5.81806 -4.6031l0.395051 -0.0461026 0 0 0.0349744 0.247205 0.0468974 0.242436 0.0588205 0.237667 0.0703462 0.232103 0.0810769 0.226936 0.0910128 0.220577 0.102141 0.215013 0.111282 0.208256 0.121218 0.201897 0.130756 0.195538 0.139103 0.188385 0.148244 0.180436 0.156192 0.173282 0.164141 0.164936 0.17209 0.157385 0.178846 0.148641 0.186 0.140295 0.191962 0.130756 0.199115 0.122013 0.204282 0.112077 0.209846 0.102141 0.21541 0.0926026 0.220179 0.0822692 0.224154 0.0715385 0.228923 0.0608077 0.2325 0.0496795 0.236077 0.0381538 0.239256 0.0266282 0.242038 0.0147051 0.244423 0.00238462 0.246808 -0.0099359 0.248795 -0.0226538 0.0461026 0.395051 -0.268667 0.0242436 -0.266679 0.0107308 -0.26509 -0.00238462 -0.26191 -0.0162949 -0.259128 -0.0290128 -0.255154 -0.0413333 -0.251577 -0.0536538 -0.248 -0.0655769 -0.243231 -0.0771026 -0.237667 -0.0894231 -0.232897 -0.0997564 -0.227333 -0.110885 -0.220974 -0.121615 -0.215013 -0.131551 -0.207859 -0.141885 -0.201103 -0.151423 -0.193949 -0.160564 -0.185603 -0.170103 -0.177654 -0.178449 -0.16891 -0.18759 -0.160167 -0.195538 -0.151026 -0.203487 -0.14109 -0.211436 -0.131551 -0.21859 -0.120821 -0.225744 -0.11009 -0.2325 -0.0989615 -0.239654 -0.0874359 -0.245218 -0.0759103 -0.251179 -0.0635897 -0.256744 -0.0508718 -0.262308 -0.0381538 -0.267077 0 0zm5.14044 0.66809l1.81072 0 0 0.397436 -1.81072 0 0 0 0 -0.397436zm-1.81072 0l1.81072 0 0 0.397436 -1.81072 0 0 0 0 -0.397436zm-0.769833 -0.0468974l0.344179 -0.198718 0 0 0.00953846 0.0155 0.00874359 0.0143077 0.00953846 0.0131154 0.0099359 0.0139103 0.0099359 0.0123205 0.0115256 0.0139103 0.0111282 0.0123205 0.0103333 0.0111282 0.0103333 0.0099359 0.0123205 0.0111282 0.0115256 0.0099359 0.0139103 0.0111282 0.0111282 0.00874359 0.0107308 0.00715385 0.0155 0.00953846 0.0131154 0.00834615 0.0123205 0.00675641 0.0139103 0.00715385 0.0147051 0.00675641 0.0135128 0.00596154 0.0147051 0.0055641 0.0158974 0.00596154 0.0135128 0.00437179 0.0143077 0.00357692 0.0166923 0.00397436 0.0166923 0.00357692 0.0155 0.00278205 0.0170897 0.00238462 0.0158974 0.00198718 0.0162949 0.00119231 0.0182821 0.000794872 0.0170897 0.000397436 0 0.397436 -0.0306026 -0.000397436 -0.0286154 -0.00158974 -0.0298077 -0.00198718 -0.0302051 -0.00357692 -0.0282179 -0.00397436 -0.0290128 -0.00516667 -0.0278205 -0.00596154 -0.0270256 -0.00635897 -0.0294103 -0.00834615 -0.0286154 -0.00914103 -0.0262308 -0.00914103 -0.0266282 -0.0103333 -0.0270256 -0.0115256 -0.0258333 -0.0123205 -0.0250385 -0.0127179 -0.0266282 -0.0147051 -0.0242436 -0.0147051 -0.021859 -0.0143077 -0.0258333 -0.0174872 -0.0238462 -0.0182821 -0.0210641 -0.0166923 -0.021859 -0.0186795 -0.0210641 -0.0190769 -0.0214615 -0.0210641 -0.0206667 -0.0214615 -0.0190769 -0.021859 -0.0178846 -0.0210641 -0.0186795 -0.0234487 -0.0170897 -0.0234487 -0.0174872 -0.0250385 -0.0158974 -0.0254359 -0.0151026 -0.0250385 0 0zm0 -0.889064l0.344179 0.198718 0 0 -0.00874359 0.0155 -0.00755128 0.0147051 -0.00755128 0.0162949 -0.00675641 0.0147051 -0.00596154 0.0147051 -0.00596154 0.0170897 -0.00437179 0.0131154 -0.00437179 0.0155 -0.00476923 0.0178846 -0.00357692 0.0147051 -0.00238462 0.0135128 -0.00198718 0.0162949 -0.00238462 0.0170897 -0.00119231 0.0127179 -0.000397436 0.0155 -0.000397436 0.0162949 0.000397436 0.0166923 0.000397436 0.0151026 0.00119231 0.0131154 0.00198718 0.0162949 0.00238462 0.0166923 0.00238462 0.0135128 0.00397436 0.0151026 0.00437179 0.0178846 0.00437179 0.0151026 0.00437179 0.0139103 0.00596154 0.0158974 0.00596154 0.0151026 0.00675641 0.0151026 0.00755128 0.0158974 0.00794872 0.0158974 0.00834615 0.0147051 -0.344179 0.198718 -0.0147051 -0.0266282 -0.0135128 -0.0262308 -0.0123205 -0.0254359 -0.0123205 -0.0278205 -0.0107308 -0.0270256 -0.0099359 -0.0270256 -0.0099359 -0.0298077 -0.00755128 -0.0278205 -0.00675641 -0.0258333 -0.00635897 -0.0286154 -0.0055641 -0.0302051 -0.00397436 -0.0270256 -0.00357692 -0.0274231 -0.00278205 -0.0313974 -0.00119231 -0.0286154 -0.000397436 -0.0278205 0.000397436 -0.0274231 0.00119231 -0.0290128 0.00278205 -0.031 0.00317949 -0.0274231 0.00437179 -0.0274231 0.0055641 -0.0302051 0.00675641 -0.0290128 0.00635897 -0.0250385 0.00755128 -0.0282179 0.0099359 -0.0298077 0.0099359 -0.0258333 0.0107308 -0.0282179 0.0123205 -0.0274231 0.0123205 -0.0258333 0.0139103 -0.0266282 0.0143077 -0.0258333 0 0zm1.24954 -1.36917l-0.905359 1.56788 -0.344179 -0.198718 0.905359 -1.56788 0.344179 0.198718zm0.905359 -1.56828l-0.905359 1.56828 -0.344179 -0.198718 0.905359 -1.56828 0 0 0.344179 0.198718zm0.425654 -0.643051l0 0.397436 0 0 -0.0170897 0.000397436 -0.0182821 0.000794872 -0.0162949 0.00119231 -0.0158974 0.00198718 -0.0170897 0.00238462 -0.0155 0.00278205 -0.0166923 0.00357692 -0.0166923 0.00397436 -0.0143077 0.00357692 -0.0135128 0.00437179 -0.0158974 0.00596154 -0.0147051 0.0055641 -0.0135128 0.00596154 -0.0147051 0.00675641 -0.0139103 0.00715385 -0.0123205 0.00675641 -0.0131154 0.00834615 -0.0155 0.00953846 -0.0107308 0.00715385 -0.0111282 0.00874359 -0.0139103 0.0111282 -0.0115256 0.0099359 -0.0111282 0.0099359 -0.0115256 0.0115256 -0.0111282 0.0115256 -0.0103333 0.0115256 -0.0115256 0.0139103 -0.0099359 0.0123205 -0.0099359 0.0139103 -0.00953846 0.0131154 -0.00874359 0.0143077 -0.00953846 0.0155 -0.344179 -0.198718 0.0151026 -0.0250385 0.0158974 -0.0254359 0.0174872 -0.0250385 0.0170897 -0.0234487 0.0186795 -0.0234487 0.0178846 -0.0210641 0.0198718 -0.0226538 0.0198718 -0.0202692 0.0202692 -0.0202692 0.0222564 -0.0202692 0.021859 -0.0186795 0.0210641 -0.0166923 0.0238462 -0.0182821 0.0258333 -0.0174872 0.021859 -0.0143077 0.0242436 -0.0147051 0.0266282 -0.0147051 0.0250385 -0.0127179 0.0258333 -0.0123205 0.0270256 -0.0115256 0.0266282 -0.0103333 0.0262308 -0.00914103 0.0286154 -0.00914103 0.0294103 -0.00834615 0.0270256 -0.00635897 0.0278205 -0.00596154 0.0290128 -0.00516667 0.0282179 -0.00397436 0.0302051 -0.00357692 0.0298077 -0.00198718 0.0286154 -0.00158974 0.0306026 -0.000397436 0 0zm0.769833 0.444333l-0.344179 0.198718 0 0 -0.00953846 -0.0155 -0.00874359 -0.0143077 -0.00953846 -0.0131154 -0.0099359 -0.0139103 -0.0099359 -0.0123205 -0.0115256 -0.0139103 -0.0103333 -0.0115256 -0.0111282 -0.0115256 -0.0115256 -0.0115256 -0.0111282 -0.0099359 -0.0115256 -0.0099359 -0.0139103 -0.0111282 -0.0111282 -0.00874359 -0.0107308 -0.00715385 -0.0155 -0.00953846 -0.0131154 -0.00834615 -0.0123205 -0.00675641 -0.0139103 -0.00715385 -0.0147051 -0.00675641 -0.0135128 -0.00596154 -0.0147051 -0.0055641 -0.0158974 -0.00596154 -0.0135128 -0.00437179 -0.0143077 -0.00357692 -0.0166923 -0.00397436 -0.0166923 -0.00357692 -0.0155 -0.00278205 -0.0170897 -0.00238462 -0.0158974 -0.00198718 -0.0162949 -0.00119231 -0.0182821 -0.000794872 -0.0170897 -0.000397436 0 -0.397436 0.0306026 0.000397436 0.0286154 0.00158974 0.0298077 0.00198718 0.0302051 0.00357692 0.0282179 0.00397436 0.0290128 0.00516667 0.0278205 0.00596154 0.0270256 0.00635897 0.0294103 0.00834615 0.0286154 0.00914103 0.0262308 0.00914103 0.0266282 0.0103333 0.0270256 0.0115256 0.0258333 0.0123205 0.0250385 0.0127179 0.0266282 0.0147051 0.0242436 0.0147051 0.021859 0.0143077 0.0258333 0.0174872 0.0238462 0.0182821 0.0210641 0.0166923 0.021859 0.0186795 0.0222564 0.0202692 0.0202692 0.0202692 0.0198718 0.0202692 0.0198718 0.0226538 0.0178846 0.0210641 0.0186795 0.0234487 0.0170897 0.0234487 0.0174872 0.0250385 0.0158974 0.0254359 0.0151026 0.0250385 0 0zm0.561179 1.767l-0.905359 -1.56828 0.344179 -0.198718 0.905359 1.56828 -0.344179 0.198718zm0.905359 1.56788l-0.905359 -1.56788 0.344179 -0.198718 0.905359 1.56788 0 0 -0.344179 0.198718zm0.344179 0.690346l-0.344179 -0.198718 0 0.000397436 0.00834615 -0.0151026 0.00794872 -0.0158974 0.00675641 -0.0143077 0.00715385 -0.0166923 0.00635897 -0.0151026 0.00516667 -0.0143077 0.0055641 -0.0170897 0.00437179 -0.0151026 0.00357692 -0.0147051 0.00357692 -0.0151026 0.00278205 -0.0166923 0.00278205 -0.0151026 0.00119231 -0.0143077 0.00158974 -0.0170897 0.000794872 -0.0147051 0.000397436 -0.0151026 -0.000397436 -0.0147051 -0.000794872 -0.0151026 -0.00158974 -0.0166923 -0.00158974 -0.0151026 -0.00238462 -0.0147051 -0.00278205 -0.0166923 -0.00317949 -0.0147051 -0.00397436 -0.0147051 -0.00437179 -0.0155 -0.0055641 -0.0162949 -0.00516667 -0.0155 -0.00635897 -0.0147051 -0.00715385 -0.0162949 -0.00675641 -0.0147051 -0.00755128 -0.0147051 -0.00874359 -0.0155 0.344179 -0.198718 0.0143077 0.0258333 0.0139103 0.0266282 0.0131154 0.0274231 0.0111282 0.0258333 0.0111282 0.0282179 0.0099359 0.0274231 0.00874359 0.0266282 0.00834615 0.0282179 0.00715385 0.0282179 0.00635897 0.0290128 0.00516667 0.0270256 0.00476923 0.0290128 0.00317949 0.0294103 0.00238462 0.0270256 0.00158974 0.0294103 0.000397436 0.0290128 -0.000397436 0.0294103 -0.00158974 0.0290128 -0.00238462 0.0274231 -0.00357692 0.0294103 -0.00437179 0.0286154 -0.00516667 0.0270256 -0.00596154 0.0286154 -0.00755128 0.0290128 -0.00834615 0.0278205 -0.00874359 0.0266282 -0.0099359 0.0286154 -0.0111282 0.0270256 -0.0111282 0.0262308 -0.0131154 0.0270256 -0.0135128 0.0262308 -0.0147051 0.0262308 0 0.000397436zm0 -0.000397436l0 0.000397436 -0.0461026 0.0802821 0.0461026 -0.0806795zm-0.769833 0.444731l0 -0.397436 0 0 0.0166923 -0.000397436 0.0182821 -0.000794872 0.0166923 -0.00119231 0.0155 -0.00198718 0.0178846 -0.00238462 0.0151026 -0.00278205 0.0166923 -0.00357692 0.0162949 -0.00357692 0.0143077 -0.00397436 0.0147051 -0.00476923 0.0151026 -0.0055641 0.0147051 -0.0055641 0.0131154 -0.0055641 0.0147051 -0.00715385 0.0143077 -0.00715385 0.0119231 -0.00675641 0.0143077 -0.00874359 0.0139103 -0.00874359 0.0111282 -0.00755128 0.0127179 -0.00953846 0.0127179 -0.0103333 0.0115256 -0.0099359 0.0123205 -0.0111282 0.0103333 -0.0099359 0.0103333 -0.0111282 0.0111282 -0.0123205 0.0115256 -0.0139103 0.0099359 -0.0123205 0.0099359 -0.0139103 0.00953846 -0.0131154 0.00874359 -0.0143077 0.00953846 -0.0155 0.344179 0.198718 -0.0151026 0.0250385 -0.0158974 0.0254359 -0.0174872 0.0250385 -0.0170897 0.0234487 -0.0186795 0.0234487 -0.0178846 0.0210641 -0.0190769 0.021859 -0.0206667 0.0214615 -0.0214615 0.0210641 -0.0210641 0.0190769 -0.021859 0.0186795 -0.0222564 0.0174872 -0.0230513 0.0174872 -0.024641 0.0170897 -0.0234487 0.0151026 -0.0238462 0.0143077 -0.0262308 0.0147051 -0.0254359 0.0127179 -0.0250385 0.0119231 -0.0274231 0.0119231 -0.0266282 0.0103333 -0.0270256 0.00953846 -0.0282179 0.00874359 -0.0286154 0.00794872 -0.0274231 0.00675641 -0.0278205 0.00596154 -0.0294103 0.00516667 -0.0282179 0.00397436 -0.0298077 0.00357692 -0.0302051 0.00198718 -0.0286154 0.00158974 -0.0302051 0.000397436 0 0z"/>
  </g>
 </g>
</svg>
