<?xml version="1.0" encoding="UTF-8"?>
<!DOCTYPE svg PUBLIC "-//W3C//DTD SVG 1.1//EN" "http://www.w3.org/Graphics/SVG/1.1/DTD/svg11.dtd">
<!-- Creator: CorelDRAW -->
<svg xmlns="http://www.w3.org/2000/svg" xml:space="preserve" width="58px" height="27px" style="shape-rendering:geometricPrecision; text-rendering:geometricPrecision; image-rendering:optimizeQuality; fill-rule:evenodd; clip-rule:evenodd"
viewBox="0 0 10.7956 5.16288"
 xmlns:xlink="http://www.w3.org/1999/xlink">
 <defs>
  <style type="text/css">
   <![CDATA[
    .fil0 {fill:#EC6C1E}
   ]]>
  </style>
 </defs>
 <g id="Capa_x0020_1">
  <metadata id="CorelCorpID_0Corel-Layer"/>
  <path class="fil0" d="M10.5677 2.1017c-3.50179,0.710027 -3.96768,-2.49973 -7.74909,-2.06001 -1.66885,0.194027 -2.3842,0.958824 -2.68755,1.51806 -0.042575,0.0784976 -0.0281616,0.173183 0.0359226,0.234606 0.0638625,0.061645 0.157439,0.0709583 0.231945,0.0230615 0.772337,-0.495821 2.41059,-1.25751 4.51583,-0.606472 0.0886979,0.0272746 0.144134,0.113533 0.133712,0.207331 -0.010422,0.093798 -0.0835978,0.164978 -0.176065,0.171409 -0.929332,0.064306 -1.68748,0.541722 -1.97286,1.01936 -0.426637,0.713131 -0.916249,0.97856 -1.68149,0.99519 -0.37874,0.00820456 -0.703818,-0.118412 -0.935319,-0.248798 -0.0722888,-0.0405793 -0.157882,-0.030379 -0.219306,0.0259441 -0.0612016,0.0561014 -0.0798281,0.141917 -0.0476751,0.219306 0.206666,0.49826 0.801164,1.21538 2.5015,1.47549 1.62162,0.247911 2.992,-0.0798281 3.89007,-0.425972 0.0898066,-0.0345922 0.139921,-0.130386 0.117968,-0.225514 -0.0219527,-0.0953502 -0.108655,-0.158326 -0.204227,-0.148569 -0.260994,0.0268311 -0.517109,0.041688 -0.711135,0.0286051 -0.561458,-0.0685191 -0.896514,-0.33173 -0.570327,-0.580528 0.326408,-0.248798 1.25485,0 3.26253,-0.33173 1.04486,-0.172739 1.86199,-0.58341 2.40549,-0.937537 0.0776107,-0.0505578 0.108211,-0.148125 0.0740627,-0.235271 -0.0343704,-0.0875892 -0.12329,-0.136373 -0.213984,-0.117968z"/>
 </g>
</svg>
