<?xml version="1.0" encoding="UTF-8"?>
<!DOCTYPE svg PUBLIC "-//W3C//DTD SVG 1.1//EN" "http://www.w3.org/Graphics/SVG/1.1/DTD/svg11.dtd">
<!-- Creator: CorelDRAW -->
<svg xmlns="http://www.w3.org/2000/svg" xml:space="preserve" width="59px" height="29px" style="shape-rendering:geometricPrecision; text-rendering:geometricPrecision; image-rendering:optimizeQuality; fill-rule:evenodd; clip-rule:evenodd"
viewBox="0 0 8.18661 3.95577"
 xmlns:xlink="http://www.w3.org/1999/xlink">
 <defs>
  <style type="text/css">
   <![CDATA[
    .fil0 {fill:#9D9E9E;fill-rule:nonzero}
   ]]>
  </style>
 </defs>
 <g id="Capa_x0020_1">
  <metadata id="CorelCorpID_0Corel-Layer"/>
  <g>
   <path class="fil0" d="M7.51696 1.79289l-0.0295072 -0.208845 0.181961 -0.0198354 0.230484 -0.039179 0.0413101 0.206878 -0.242287 0.0411462 -0.181961 0.0198354zm-0.653257 -0.00344251l0.0108193 -0.210813 0.176388 0.0150815 0.195075 0.00377037 0.036884 -0.00196715 0.0167208 0.210485 -0.050654 0.00229501 -0.208845 -0.00377037 -0.176388 -0.0150815zm-0.643257 -0.147208l0.0642602 -0.200977 0.0732762 0.0255729 0.16229 0.0467198 0.159175 0.0352447 -0.0386872 0.207534 -0.172617 -0.0381954 -0.17442 -0.0503262 -0.0732762 -0.0255729zm-0.594734 -0.269007l0.100325 -0.185568 0.0308186 0.0172125 0.145077 0.0750795 0.147864 0.069342 0.0432772 0.0180322 -0.0754073 0.197043 -0.053113 -0.0219665 -0.156388 -0.0732762 -0.151634 -0.0786859 -0.0308186 -0.0172125zm-0.54949 -0.329661l0.112455 -0.178683 0.000327858 0.000163929 0.141799 0.0890134 0.141471 0.0868823 0.0727845 0.0434412 -0.10557 0.182617 -0.0767188 -0.0454083 -0.143766 -0.0885216 -0.142454 -0.0893413 -0.000327858 -0.000163929zm-0.539162 -0.327038l0.106882 -0.181961 0.108521 0.0618012 0.148192 0.0890134 0.108685 0.0672109 -0.112127 0.17901 -0.106718 -0.0662273 -0.144913 -0.0870463 -0.108521 -0.0618012zm-0.557358 -0.26868l0.0803252 -0.195075 0.0521294 0.0199993 0.168847 0.073932 0.162454 0.0793416 0.0122947 0.00672109 -0.102292 0.184584 -0.00639323 -0.00344251 -0.154913 -0.0757352 -0.160323 -0.0703255 -0.0521294 -0.0199993zm-0.591456 -0.173601l0.048523 -0.205239 0.122619 0.0252451 0.19278 0.0511458 0.104095 0.0337694 -0.0704895 0.19901 -0.0936034 -0.0304908 -0.181305 -0.0481951 -0.122619 -0.0252451zm-0.611291 -0.0634405l0.011475 -0.210813 0.132782 0.00327858 0.223435 0.0188518 0.0775384 0.0111472 -0.0363922 0.207862 -0.0650798 -0.00950788 -0.210977 -0.0175404 -0.132782 -0.00327858zm-0.575227 0.0270483l-0.0239336 -0.209501 0 0 0.260647 -0.0227861 0.132291 -0.00459001 0.000983574 0.211141 -0.120488 0.0039343 -0.2495 0.0218026 0 0zm-0.0399987 0.0050818l-0.0239336 -0.209501 0.0399987 -0.0050818 0.0239336 0.209501 -0.0399987 0.0050818zm0 0l-0.0239336 -0.209501 0.0399987 -0.0050818 0.0239336 0.209501 -0.0399987 0.0050818 0.409986 -0.0308186 -0.120488 0.0039343 -0.2495 0.0218026 -0.0399987 0.0050818zm-0.604078 0.122291l-0.0573751 -0.203272 0.0383594 -0.0113111 0.0970459 -0.0255729 0.100652 -0.0237697 0.104587 -0.0218026 0.0824563 -0.0147536 0.0344251 0.20819 -0.0768827 0.01377 -0.0986852 0.0204911 -0.0950788 0.0224583 -0.0911445 0.0242615 -0.0383594 0.0113111zm-0.563424 0.234746l-0.0986852 -0.186551 0.0629487 -0.034589 0.0726205 -0.036884 0.076063 -0.0357365 0.0793416 -0.0342612 0.0829481 -0.0329497 0.0242615 -0.00868823 0.0688502 0.199338 -0.01836 0.00672109 -0.0767188 0.0303269 -0.0731123 0.0316383 -0.0701616 0.0331137 -0.0670469 0.0339333 -0.0629487 0.034589zm-0.469984 0.369168l-0.152454 -0.145897 0.0247533 -0.0265565 0.0434412 -0.043933 0.046228 -0.0440969 0.0490148 -0.0432772 0.0516376 -0.0431133 0.0545883 -0.0426215 0.0573751 -0.0419658 0.00918002 -0.0062293 0.11639 0.17606 -0.00360644 0.00262286 -0.0518016 0.0377037 -0.0493426 0.0383594 -0.0463919 0.0388512 -0.043769 0.0390151 -0.0413101 0.039179 -0.039179 0.039343 -0.0247533 0.0265565zm-0.229337 0.316711l-0.18524 -0.101636 0 -0.000163929 0.0234418 -0.0409822 0.0252451 -0.041638 0.0273761 -0.0424576 0.0293433 -0.0427855 0.0145897 -0.0199993 0.169175 0.126553 -0.0109832 0.0150815 -0.0260647 0.0378676 -0.0240976 0.0375397 -0.0222943 0.0367201 -0.0204911 0.0360644 0 -0.000163929zm0.00639323 0.0429494l-0.145241 0.15311 -0.000163929 0 -0.00770466 -0.00770466 -0.0062293 -0.00672109 -0.0073768 -0.00836038 -0.00606537 -0.00803252 -0.00573751 -0.00754073 -0.00606537 -0.00918002 -0.00524573 -0.00852431 -0.00524573 -0.00967181 -0.0039343 -0.00819645 -0.0039343 -0.00836038 -0.00442608 -0.0109832 -0.00344251 -0.00983574 -0.00262286 -0.00868823 -0.00213108 -0.00836038 -0.00229501 -0.00983574 -0.00213108 -0.0119668 -0.00131143 -0.0101636 -0.000655716 -0.00868823 -0.000655716 -0.0101636 0 -0.0101636 0.000327858 -0.00868823 0.000491787 -0.0103275 0.00147536 -0.0118029 0.00163929 -0.00999967 0.00180322 -0.00852431 0.00229501 -0.00983574 0.00278679 -0.00983574 0.00344251 -0.0104915 0.00360644 -0.00918002 0.00377037 -0.00934395 0.00459001 -0.00934395 0.00475394 -0.00918002 0.18524 0.101636 -0.000819645 0.00163929 -0.000655716 0.00147536 -0.000819645 0.00180322 -0.000655716 0.00163929 -0.000163929 0.000655716 -0.000491787 0.00163929 -0.000327858 0.00131143 -0.000491787 0.00295072 -0.000327858 0.0011475 0.000163929 -0.000327858 -0.000163929 0.0011475 0 0.00278679 0 0.000983574 0 0.00131143 0.000327858 0.00245893 0 0.00131143 -0.000163929 -0.000819645 0.000327858 0.000983574 0.000819645 0.00278679 0.000655716 0.00213108 0.000163929 0.000983574 -0.000163929 -0.000491787 0.000983574 0.00213108 0.000983574 0.00196715 0.000327858 0.000491787 0.000983574 0.00163929 0.000163929 0.000327858 0.00147536 0.00196715 0.0011475 0.00147536 0.000491787 0.000491787 0.00196715 0.00213108 0.000819645 0.000819645 -0.000163929 0zm0.00868823 0.00639323l-0.118685 0.17442 -0.00327858 -0.00213108 -0.00852431 -0.00573751 -0.0073768 -0.00590144 -0.00786859 -0.00639323 -0.00819645 -0.00754073 0.145241 -0.15311 0.000655716 0.000655716 0.00163929 0.0011475 0.00213108 0.00163929 0.000983574 0.000819645 0.00327858 0.00213108zm0.461132 -0.237041l0.0924559 0.18983 -0.0301629 0.0142618 -0.0713091 0.0355726 -0.0683584 0.0355726 -0.0644241 0.0352447 -0.0611455 0.0350808 -0.0575391 0.0342612 -0.00852431 0.00524573 -0.112783 -0.178355 0.011475 -0.00721287 0.0608176 -0.0362283 0.0644241 -0.0367201 0.0680305 -0.0372119 0.071637 -0.0375397 0.0752434 -0.0375397 0.0301629 -0.0142618zm0.606701 -0.233763l0.0613094 0.20196 -0.0147536 0.00426215 -0.0937674 0.0295072 -0.0906527 0.0311465 -0.087702 0.0324579 -0.0844234 0.0334415 -0.0152454 0.00655716 -0.0845873 -0.193436 0.0195075 -0.00819645 0.0890134 -0.0354087 0.092292 -0.0340972 0.0955706 -0.0327858 0.0986852 -0.0311465 0.0147536 -0.00426215zm0.633422 -0.135897l0.0334415 0.208518 -0.108357 0.0155733 -0.108029 0.0186879 -0.105242 0.0216386 -0.0852431 0.0198354 -0.050818 -0.204911 0.0908166 -0.0211468 0.111144 -0.0226222 0.113931 -0.0199993 0.108357 -0.0155733zm0.652273 -0.0324579l-0.00557358 0.210813 -0.0191797 -0.000819645 -0.123275 -0.0011475 -0.12098 0.00262286 -0.118521 0.0062293 -0.0272122 0.00229501 -0.0209829 -0.209829 0.0337694 -0.00295072 0.125078 -0.00655716 0.127537 -0.00295072 0.13016 0.00147536 0.0191797 0.000819645zm0.643585 0.0709812l-0.0334415 0.20819 -0.117537 -0.020819 -0.132946 -0.0190158 -0.130487 -0.0142618 -0.0272122 -0.00213108 0.0124586 -0.210485 0.0344251 0.00245893 0.137372 0.0152454 0.139831 0.0199993 0.117537 0.020819zm0.463427 0.113767l-0.0613094 0.20196 -0.000163929 0 -0.141471 -0.0403265 -0.094587 -0.0236058 0.0478673 -0.205567 0.101472 0.0252451 0.148356 0.0422937 -0.000163929 0zm0.174256 0.219829l-0.210813 0.01377 0 -0.000327858 -0.000163929 -0.00196715 -0.000327858 -0.00180322 -0.000163929 -0.00163929 -0.000491787 -0.00147536 -0.000327858 -0.00163929 -0.000491787 -0.00131143 -0.000491787 -0.00147536 -0.000327858 -0.000983574 -0.000327858 -0.000655716 -0.000655716 -0.00131143 -0.000819645 -0.00131143 -0.0011475 -0.00180322 -0.000983574 -0.00147536 -0.000983574 -0.00131143 -0.000491787 -0.000819645 -0.000819645 -0.000655716 -0.0011475 -0.00131143 -0.000655716 -0.000655716 -0.00163929 -0.00131143 -0.00163929 -0.00131143 0 -0.000163929 -0.000983574 -0.000491787 -0.00262286 -0.00147536 -0.000327858 -0.000327858 -0.00131143 -0.000491787 -0.00278679 -0.0011475 -0.00147536 -0.000655716 -0.0011475 -0.000327858 0.0613094 -0.20196 0.0109832 0.00360644 0.0103275 0.0039343 0.00868823 0.00377037 0.0101636 0.00475394 0.0104915 0.00557358 0.00786859 0.00475394 0.00950788 0.00606537 0.00983574 0.00704895 0.00786859 0.0062293 0.00754073 0.00655716 0.00819645 0.00754073 0.00704895 0.00721287 0.0073768 0.00819645 0.00704895 0.00868823 0.0062293 0.00819645 0.00557358 0.00836038 0.00540966 0.00836038 0.0050818 0.00918002 0.00491787 0.00918002 0.00459001 0.0101636 0.00426215 0.0101636 0.00344251 0.00999967 0.00311465 0.0101636 0.00262286 0.0101636 0.00213108 0.0103275 0.00180322 0.0104915 0.00131143 0.0103275 0.000819645 0.0104915 0 0.000327858zm-0.228845 0.261303l-0.0144257 -0.210485 0.000327858 0 0.00229501 -0.000163929 -0.00262286 0.000163929 0.0331137 0.208518 -0.00852431 0.0011475 -0.0104915 0.000819645 0.000327858 0zm-0.0144257 -0.210485l0.000327858 0 -0.00672109 0.000491787 0.00639323 -0.000491787zm-0.376381 0.272778l-0.048523 -0.205239 0.0360644 -0.00885216 0.0624569 -0.013934 0.0636044 -0.0122947 0.0644241 -0.0106554 0.0652437 -0.00901609 0.0660634 -0.0073768 0.0670469 -0.00540966 0.0144257 0.210485 -0.0611455 0.0050818 -0.0604898 0.00672109 -0.0596701 0.00803252 -0.0585226 0.00967181 -0.057703 0.0113111 -0.0572112 0.0126225 -0.0360644 0.00885216zm-0.556047 0.229337l-0.104915 -0.182945 0.0373758 -0.0219665 0.0490148 -0.0272122 0.0504901 -0.0262286 0.0518016 -0.025409 0.0532769 -0.0242615 0.0545883 -0.023114 0.0557358 -0.0218026 0.0470476 -0.0173765 0.0701616 0.19901 -0.0421297 0.0154093 -0.050818 0.0201633 -0.0493426 0.020819 -0.0480312 0.0219665 -0.0468837 0.0227861 -0.0459001 0.0239336 -0.0440969 0.0242615 -0.0373758 0.0219665zm-0.426051 0.393266l-0.175732 -0.117373 0.0152454 -0.0239336 0.025409 -0.0360644 0.0273761 -0.0357365 0.0293433 -0.0352447 0.0311465 -0.0347529 0.0327858 -0.0342612 0.0349169 -0.0339333 0.0365562 -0.0332776 0.0381954 -0.0324579 0.039179 -0.0314744 0.13016 0.166224 -0.0342612 0.0275401 -0.0332776 0.0285236 -0.0316383 0.0286876 -0.0296711 0.0286876 -0.0278679 0.0290154 -0.0262286 0.0291794 -0.0240976 0.0290154 -0.0221304 0.0288515 -0.0201633 0.0288515 -0.0152454 0.0239336zm-0.432445 0.50195l-0.131143 -0.165568 0.0218026 -0.0163929 0.0314744 -0.0259008 0.0313104 -0.0275401 0.0309826 -0.0291794 0.0303269 -0.0308186 0.0301629 -0.0324579 0.0298351 -0.0344251 0.0296711 -0.0360644 0.0291794 -0.0378676 0.0073768 -0.0101636 0.172453 0.122291 -0.0106554 0.0144257 -0.0327858 0.0424576 -0.0336054 0.0409822 -0.0340972 0.0390151 -0.0344251 0.0373758 -0.0355726 0.0360644 -0.0362283 0.0340972 -0.0365562 0.0324579 -0.0377037 0.0308186 -0.0218026 0.0163929zm-0.630143 0.253762l-0.0357365 -0.207862 0.0413101 -0.00639323 0.0427855 -0.00803252 0.041638 -0.00901609 0.0408183 -0.0103275 0.0395069 -0.0113111 0.0386872 -0.0126225 0.0375397 -0.0136061 0.036884 -0.0150815 0.0359004 -0.016229 0.0168847 -0.00836038 0.0980295 0.186879 -0.0244254 0.0122947 -0.0431133 0.0191797 -0.0440969 0.0180322 -0.0447526 0.016229 -0.0455723 0.0149175 -0.0463919 0.0132782 -0.0473755 0.0119668 -0.0481951 0.0106554 -0.0490148 0.00901609 -0.0413101 0.00639323zm-0.272122 0.0218026l-0.00459001 -0.210813 0 0 0.043769 -0.00147536 0.00918002 0.210813 -0.048359 0.00147536 0 0zm-0.402282 -0.0519655l0.0557358 -0.2036 0.00754073 0.00213108 0.020655 0.00557358 0.020819 0.0050818 0.0213108 0.00491787 0.0211468 0.00442608 0.0214747 0.00409822 0.0222943 0.00377037 0.0221304 0.00344251 0.0221304 0.00295072 0.0224583 0.00262286 0.0227861 0.00213108 0.0229501 0.00163929 0.0232779 0.0011475 0.0236058 0.000819645 0.0236058 0.000163929 0.0237697 -0.000163929 0.00459001 0.210813 -0.0283597 0.000491787 -0.0281958 -0.000491787 -0.0278679 -0.000819645 -0.0275401 -0.00147536 -0.0272122 -0.00196715 -0.0270483 -0.00245893 -0.0267204 -0.00295072 -0.0267204 -0.00360644 -0.0260647 -0.00409822 -0.0252451 -0.00442608 -0.0257368 -0.00475394 -0.0250811 -0.00540966 -0.0245893 -0.00557358 -0.0244254 -0.00606537 -0.0239336 -0.0062293 -0.00754073 -0.00213108zm-0.342775 -0.141635l0.102292 -0.184584 0 0 0.0152454 0.00819645 0.0154093 0.00819645 0.0159011 0.00819645 0.0165568 0.00819645 0.0165568 0.00803252 0.0168847 0.00803252 0.0165568 0.00754073 -0.0865545 0.192453 -0.018524 -0.00852431 -0.0195075 -0.00901609 -0.0191797 -0.00934395 -0.0181961 -0.00918002 -0.0181961 -0.00918002 -0.0180322 -0.00950788 -0.0172125 -0.00950788 0 0zm-0.0403265 0.0050818l-0.141307 -0.157044 -0.000327858 0.000327858 0.00770466 -0.00672109 0.00770466 -0.00606537 0.0073768 -0.00540966 0.00770466 -0.00540966 0.00754073 -0.00475394 0.00967181 -0.00557358 0.00803252 -0.00409822 0.00754073 -0.00377037 0.00901609 -0.0039343 0.00967181 -0.00377037 0.00901609 -0.00295072 0.00819645 -0.00262286 0.00950788 -0.00245893 0.0103275 -0.00213108 0.00836038 -0.00147536 0.00852431 -0.00131143 0.0101636 -0.000983574 0.0103275 -0.000491787 0.00852431 -0.000163929 0.00868823 0.000163929 0.011639 0.000655716 0.00868823 0.000983574 0.00836038 0.0011475 0.0101636 0.00180322 0.00852431 0.00196715 0.00983574 0.00245893 0.00950788 0.00295072 0.00803252 0.00278679 0.00983574 0.00360644 0.00967181 0.00426215 0.00754073 0.00377037 0.00885216 0.00459001 -0.102292 0.184584 -0.00131143 -0.000655716 -0.00262286 -0.0011475 -0.000491787 -0.000327858 -0.000655716 -0.000327858 -0.00245893 -0.000819645 -0.000983574 -0.000327858 -0.000655716 -0.000163929 -0.00196715 -0.000327858 -0.000655716 -0.000163929 -0.00213108 -0.000163929 -0.00213108 -0.000327858 0.0011475 0 -0.00213108 0.000163929 -0.00196715 -0.000163929 -0.000491787 0.000163929 -0.000327858 0 -0.00196715 0.000327858 -0.00213108 0.000163929 -0.000163929 0.000163929 -0.000655716 0.000163929 -0.00229501 0.000655716 -0.0011475 0.000327858 -0.000163929 0.000163929 -0.000819645 0.000327858 -0.00229501 0.0011475 -0.00180322 0.000819645 0.000163929 0 -0.00163929 0.0011475 -0.00147536 0.000819645 -0.00180322 0.00147536 -0.0011475 0.000819645 -0.000819645 0.000819645 -0.000327858 0.000327858zm-0.0118029 0.0272122l-0.211141 -0.0127865 0.000163929 -0.00459001 0.000655716 -0.00868823 0.0011475 -0.00999967 0.00163929 -0.00999967 0.00180322 -0.00836038 0.00196715 -0.00868823 0.00278679 -0.00999967 0.00327858 -0.00999967 0.00327858 -0.00836038 0.00311465 -0.00754073 0.00442608 -0.00950788 0.00409822 -0.00803252 0.00442608 -0.00786859 0.00524573 -0.00868823 0.0050818 -0.00754073 0.00573751 -0.00803252 0.00639323 -0.00803252 0.00573751 -0.00672109 0.00754073 -0.00819645 0.00639323 -0.0062293 0.00672109 -0.00639323 0.141307 0.157044 -0.00147536 0.00147536 -0.00180322 0.00163929 0 0 -0.00147536 0.00180322 -0.000491787 0.000491787 -0.000491787 0.000819645 -0.0011475 0.00163929 -0.000327858 0.000491787 -0.000819645 0.00163929 -0.000819645 0.00147536 -0.000163929 0.000327858 -0.000819645 0.00229501 -0.000655716 0.00147536 0 0.000163929 -0.000163929 0.000163929 -0.000327858 0.00180322 -0.000491787 0.00213108 0 0.000491787 -0.000163929 0.000491787 0 0.00180322 -0.000163929 0.00459001zm0.311301 0.435231l-0.144257 0.154421 -0.0124586 -0.0111472 -0.0426215 -0.0413101 -0.0399987 -0.041474 -0.0373758 -0.041638 -0.034589 -0.041638 -0.0321301 -0.0413101 -0.0293433 -0.0409822 -0.0270483 -0.0406544 -0.0249172 -0.0403265 -0.00672109 -0.0118029 0.185568 -0.10098 0.00311465 0.00524573 0.0209829 0.0340972 0.023114 0.0344251 0.0250811 0.0350808 0.0272122 0.0354087 0.0296711 0.0357365 0.0321301 0.0357365 0.0347529 0.0359004 0.0373758 0.0360644 0.0124586 0.0111472zm0.505557 0.321301l-0.0908166 0.190485 -0.0440969 -0.0199993 -0.0719648 -0.0354087 -0.0686862 -0.0365562 -0.0650798 -0.0375397 -0.0618012 -0.0381954 -0.0583587 -0.039179 -0.0155733 -0.0113111 0.126881 -0.168847 0.00967181 0.00704895 0.0521294 0.0349169 0.0555719 0.034589 0.0591784 0.0339333 0.0624569 0.0332776 0.0663912 0.0327858 0.0440969 0.0199993zm0.581128 0.191961l-0.0511458 0.204583 -0.0509819 -0.0119668 -0.0998327 -0.0262286 -0.0957345 -0.0278679 -0.0916363 -0.0291794 -0.0780302 -0.0275401 0.0731123 -0.198026 0.0724566 0.0255729 0.0857348 0.0275401 0.0904888 0.0262286 0.094587 0.0249172 0.0509819 0.0119668zm0.37343 0.071473l-0.0314744 0.208518 0 0 -0.117865 -0.0190158 -0.0632766 -0.0118029 0.0409822 -0.206878 0.0583587 0.0108193 0.113275 0.01836 0 0zm0.237861 0.0301629l-0.0232779 0.209829 -0.0193436 -0.00180322 -0.112783 -0.0136061 -0.113931 -0.016065 0.0314744 -0.208518 0.109996 0.0154093 0.108521 0.0129504 0.0193436 0.00180322zm0.621127 0.0313104l0.000655716 0.211141 -0.0129504 0.000163929 -0.105406 -0.000819645 -0.106718 -0.00245893 -0.107865 -0.00459001 -0.0973738 -0.00606537 0.0150815 -0.210485 0.0934395 0.00573751 0.103931 0.00459001 0.102783 0.00245893 0.101472 0.000491787 0.0129504 -0.000163929zm0.621783 -0.0381954l0.0226222 0.209829 -0.0540966 0.0062293 -0.0967181 0.00950788 -0.0981934 0.00819645 -0.0998327 0.00655716 -0.0796695 0.00377037 -0.00819645 -0.210813 0.076063 -0.00377037 0.0958984 -0.0062293 0.0949149 -0.00786859 0.0931116 -0.00918002 0.0540966 -0.0062293zm0.613258 -0.10639l0.0452444 0.206223 -0.0575391 0.0129504 -0.0852431 0.0180322 -0.0872102 0.0170486 -0.0886856 0.016065 -0.0903249 0.0149175 -0.013934 0.00213108 -0.0295072 -0.208845 0.0106554 -0.00180322 0.0870463 -0.0142618 0.0857348 -0.0154093 0.0839316 -0.0163929 0.0822923 -0.0177043 0.0575391 -0.0129504zm0.598013 -0.172289l0.0675387 0.199993 -0.0604898 0.0204911 -0.0704895 0.0232779 -0.0726205 0.0227861 -0.0740959 0.0224583 -0.0765548 0.0219665 -0.0563916 0.0152454 -0.0540966 -0.203928 0.0537687 -0.0145897 0.0732762 -0.0209829 0.0718009 -0.0218026 0.0699977 -0.0218026 0.0678666 -0.0226222 0.0604898 -0.0204911zm0.153438 -0.0893413l0.205895 -0.0478673 0 0 0.00229501 0.0108193 0.00196715 0.011475 0.0011475 0.0118029 0.000819645 0.0103275 0.000327858 0.0118029 -0.000327858 0.0104915 -0.000491787 0.0104915 -0.00131143 0.0118029 -0.00180322 0.0118029 -0.00213108 0.0103275 -0.00245893 0.00999967 -0.00327858 0.0104915 -0.00327858 0.00999967 -0.00442608 0.0111472 -0.00475394 0.00999967 -0.00409822 0.00836038 -0.00540966 0.00983574 -0.00590144 0.00967181 -0.00639323 0.00918002 -0.0062293 0.00819645 -0.00704895 0.00885216 -0.0062293 0.00672109 -0.152454 -0.146225 -0.00163929 0.00180322 0.000819645 -0.000983574 0.00131143 -0.00163929 0.000491787 -0.000983574 0.000655716 -0.000819645 0.000491787 -0.000983574 0.00147536 -0.00278679 0.000491787 -0.0011475 0.000163929 -0.000655716 0.000655716 -0.00147536 0.000327858 -0.00163929 0.000491787 -0.00213108 0.000491787 -0.00180322 0.000163929 -0.000655716 0 -0.000655716 0.000163929 -0.00229501 0 -0.00229501 0 -0.000983574 -0.000163929 -0.00245893 -0.000163929 -0.00131143 -0.000327858 -0.00131143 -0.000327858 -0.00229501 0 0zm-0.0377037 -0.0265565l-0.0209829 -0.209829 -0.000163929 0 0.0106554 -0.000819645 0.0118029 -0.000491787 0.0118029 0.000163929 0.0106554 0.000491787 0.0119668 0.00131143 0.0118029 0.00180322 0.0101636 0.00213108 0.00950788 0.00229501 0.0113111 0.00311465 0.011475 0.00409822 0.00901609 0.00360644 0.00983574 0.00409822 0.0111472 0.00557358 0.00868823 0.0050818 0.00950788 0.00573751 0.00868823 0.00606537 0.00819645 0.00590144 0.00934395 0.00754073 0.00836038 0.00754073 0.00786859 0.00786859 0.0062293 0.00672109 0.00803252 0.00901609 0.00721287 0.00983574 0.00540966 0.00754073 0.00557358 0.00836038 0.00672109 0.0113111 0.00491787 0.00999967 0.00409822 0.00852431 0.00491787 0.0119668 0.00377037 0.0104915 0.00311465 0.0103275 0.00295072 0.0113111 -0.205895 0.0478673 -0.000327858 -0.00147536 -0.000819645 -0.00213108 -0.000491787 -0.00196715 0 0.000163929 -0.00147536 -0.00295072 -0.000655716 -0.00147536 0.000163929 0.000491787 -0.00131143 -0.00213108 -0.00180322 -0.00262286 -0.000327858 -0.000327858 -0.000163929 -0.000163929 -0.00229501 -0.00245893 -0.000983574 -0.000983574 -0.000819645 -0.000655716 -0.000163929 -0.000327858 -0.00196715 -0.00131143 -0.00147536 -0.0011475 -0.000983574 -0.000491787 -0.00213108 -0.0011475 0 0 -0.00163929 -0.000819645 -0.00245893 -0.000983574 -0.000655716 -0.000163929 -0.000491787 -0.000163929 -0.00295072 -0.000655716 -0.00229501 -0.000491787 -0.000655716 -0.000163929 -0.000819645 0 -0.00245893 -0.000163929 -0.00131143 -0.000163929 -0.00131143 0.000163929 -0.00245893 0.000163929 -0.000163929 0zm0.000163929 0l-0.000163929 0 0.0104915 -0.000983574 -0.0103275 0.000983574zm-0.0849152 0.00786859l-0.01836 -0.210157 0.0113111 -0.000819645 0.0172125 -0.00163929 0.0180322 -0.00180322 0.0180322 -0.00163929 0.0175404 -0.00163929 0.0209829 0.209829 -0.018524 0.00196715 -0.0180322 0.00163929 -0.0180322 0.00180322 -0.0188518 0.00163929 -0.0113111 0.000819645zm-0.464083 0.0126225l0.0252451 -0.209501 -0.00573751 -0.000491787 0.0124586 0.000655716 0.0129504 0.000655716 0.0134422 0.000655716 0.0131143 0.000491787 0.013934 0.000327858 0.0142618 0.000327858 0.01377 0 0.0147536 0 0.0149175 0 0.0144257 0 0.0154093 -0.000327858 0.016065 -0.000327858 0.0157372 -0.000327858 0.0152454 -0.000491787 0.0159011 -0.000655716 0.00344251 -0.000163929 0.00918002 0.210813 -0.00409822 0.000163929 -0.0168847 0.000655716 -0.0175404 0.000491787 -0.0167208 0.000327858 -0.016065 0.000327858 -0.0163929 0.000327858 -0.0167208 0.000327858 -0.0159011 0 -0.0157372 0 -0.0163929 -0.000327858 -0.0152454 -0.000327858 -0.0152454 -0.000327858 -0.0157372 -0.000491787 -0.0147536 -0.000655716 -0.0145897 -0.000655716 -0.0147536 -0.000983574 -0.00573751 -0.000491787zm0.00573751 0.000491787l-0.00360644 -0.000163929 -0.00213108 -0.000327858 0.00573751 0.000491787zm-0.207206 -0.0378676l0.0521294 -0.204583 0.00688502 0.00180322 0.0311465 0.00754073 0.0321301 0.00672109 0.0336054 0.0062293 0.0349169 0.00540966 0.0359004 0.00475394 -0.0252451 0.209501 -0.0411462 -0.00540966 -0.0398347 -0.00639323 -0.0388512 -0.00688502 -0.0380315 -0.00803252 -0.0367201 -0.00885216 -0.00688502 -0.00180322zm-0.271302 -0.57326l0.126881 0.168847 0 0 -0.0155733 0.0124586 -0.0126225 0.011639 -0.00967181 0.0104915 -0.00655716 0.00852431 -0.00409822 0.00672109 -0.00245893 0.00540966 -0.0011475 0.00360644 -0.000327858 0.00163929 0 0.00131143 0.000163929 0.00163929 0.000819645 0.00245893 0.00163929 0.00426215 0.00245893 0.00442608 0.00475394 0.00639323 0.00672109 0.00819645 0.00868823 0.00852431 0.0108193 0.00934395 0.0134422 0.00967181 0.0155733 0.0103275 0.0119668 0.00704895 -0.101964 0.184912 -0.0214747 -0.0126225 -0.0250811 -0.0165568 -0.0236058 -0.0175404 -0.0226222 -0.0191797 -0.020819 -0.020655 -0.018524 -0.0216386 -0.0168847 -0.0237697 -0.0145897 -0.0267204 -0.0111472 -0.0275401 -0.00770466 -0.0293433 -0.00377037 -0.0311465 0.000655716 -0.0314744 0.00524573 -0.0314744 0.00934395 -0.0298351 0.0129504 -0.0283597 0.0165568 -0.0273761 0.0193436 -0.0252451 0.0218026 -0.0236058 0.0240976 -0.0224583 0.0267204 -0.0213108 0 0zm0.0175404 -0.011639l0.126881 0.168847 -0.0175404 0.011639 -0.126881 -0.168847 0.0175404 -0.011639zm0 0l0.126881 0.168847 -0.0175404 0.011639 -0.126881 -0.168847 0.0175404 -0.011639 0.071473 0.215075 -0.00655716 0.00852431 -0.00409822 0.00672109 -0.00245893 0.00540966 -0.0011475 0.00360644 -0.000327858 0.00163929 0 0.00131143 0.000163929 0.00163929 0.000819645 0.00245893 0.00163929 0.00426215 0.00245893 0.00442608 0.00475394 0.00639323 0.00672109 0.00819645 0.00868823 0.00852431 0.0108193 0.00934395 0.0134422 0.00967181 0.0155733 0.0103275 0.0119668 0.00704895 -0.101964 0.184912 -0.0214747 -0.0126225 -0.0250811 -0.0165568 -0.0236058 -0.0175404 -0.0226222 -0.0191797 -0.020819 -0.020655 -0.018524 -0.0216386 -0.0168847 -0.0237697 -0.0145897 -0.0267204 -0.0111472 -0.0275401 -0.00770466 -0.0293433 -0.00377037 -0.0311465 0.000655716 -0.0314744 0.00524573 -0.0314744 0.00934395 -0.0298351 0.0129504 -0.0283597 0.0165568 -0.0273761 0.0193436 -0.0252451 0.0218026 -0.0236058 0.0240976 -0.0224583 0.0267204 -0.0213108 0.0175404 -0.011639zm0.683748 -0.105078l0.00426215 0.210813 -0.0378676 0.000655716 -0.0632766 0.00131143 -0.0595062 0.00180322 -0.0558998 0.00196715 -0.0519655 0.00245893 -0.0481951 0.00327858 -0.0445887 0.0039343 -0.0409822 0.00475394 -0.00377037 0.000655716 -0.0360644 -0.207862 0.0122947 -0.00196715 0.0468837 -0.00540966 0.0498344 -0.00459001 0.0524573 -0.00327858 0.0552441 -0.00278679 0.0578669 -0.00196715 0.0611455 -0.00180322 0.0642602 -0.00131143 0.0378676 -0.000655716zm0.630471 -0.0204911l0.0111472 0.210813 -0.029999 0.00163929 -0.0944231 0.00459001 -0.0904888 0.00360644 -0.0863906 0.00295072 -0.0824563 0.00229501 -0.0418019 0.000983574 -0.00491787 -0.210813 0.0411462 -0.000983574 0.0814727 -0.00229501 0.0850791 -0.00295072 0.0888495 -0.00360644 0.0927838 -0.00459001 0.029999 -0.00163929zm0.625389 -0.0532769l0.0242615 0.209501 -0.0129504 0.00147536 -0.12016 0.0131143 -0.11557 0.0113111 -0.111308 0.00950788 -0.0655716 0.0050818 -0.0150815 -0.210485 0.0636044 -0.00475394 0.109013 -0.00950788 0.113275 -0.0109832 0.117537 -0.0127865 0.0129504 -0.00147536zm0.502442 -0.0699977l0.0337694 0.20819 0 0 -0.138028 0.0214747 -0.133602 0.0191797 -0.0295072 0.0039343 -0.0265565 -0.209173 0.0272122 -0.00360644 0.130979 -0.0188518 0.135733 -0.0211468 0 0zm0.118521 -0.0209829l0.0370479 0.207862 -0.0481951 0.00885216 -0.0736041 0.0124586 -0.0337694 -0.20819 0.0703255 -0.0121307 0.0481951 -0.00885216zm0.599488 -0.156224l0.064588 0.200977 -0.0595062 0.0193436 -0.0642602 0.0201633 -0.0652437 0.0191797 -0.0663912 0.0186879 -0.0673748 0.0178683 -0.0683584 0.0170486 -0.0240976 0.00590144 -0.0468837 -0.205895 0.0211468 -0.00491787 0.0654077 -0.0163929 0.0644241 -0.0172125 0.0634405 -0.0177043 0.062293 -0.018524 0.0613094 -0.0191797 0.0595062 -0.0193436zm0.572276 -0.235402l0.0921281 0.18983 -0.0255729 0.0124586 -0.0518016 0.0247533 -0.0532769 0.0247533 -0.0544244 0.0242615 -0.0552441 0.0239336 -0.0567194 0.0236058 -0.0575391 0.0232779 -0.0408183 0.0159011 -0.0754073 -0.197043 0.0381954 -0.0149175 0.0552441 -0.0222943 0.0540966 -0.0226222 0.0529491 -0.0229501 0.0521294 -0.0232779 0.050654 -0.0234418 0.0498344 -0.0237697 0.0255729 -0.0124586zm0.448346 -0.252451l0.114095 0.177699 0 0 -0.0390151 0.0247533 -0.0404905 0.0250811 -0.041638 0.0250811 -0.0427855 0.0252451 -0.043769 0.0252451 -0.0450805 0.025409 -0.0255729 0.013934 -0.10098 -0.18524 0.0236058 -0.0129504 0.0431133 -0.0244254 0.0421297 -0.0242615 0.0408183 -0.0239336 0.0396708 -0.0240976 0.0385233 -0.0237697 0.0373758 -0.0237697 0 0zm0.0163929 -0.0244254l0.203272 0.057703 -0.000819645 0.00327858 -0.00262286 0.00885216 -0.00344251 0.00999967 -0.0039343 0.00983574 -0.00409822 0.00950788 -0.00475394 0.00950788 -0.00475394 0.00868823 -0.00639323 0.0104915 -0.00524573 0.00770466 -0.00540966 0.0073768 -0.00754073 0.00967181 -0.00754073 0.00836038 -0.00704895 0.0073768 -0.00721287 0.00688502 -0.00819645 0.0073768 -0.00950788 0.00754073 -0.00819645 0.00590144 -0.00885216 0.00606537 -0.114095 -0.177699 0.00163929 -0.0011475 0.00196715 -0.00131143 0.000327858 -0.000327858 0.000983574 -0.000819645 0.00163929 -0.00163929 0.00147536 -0.00147536 0.000655716 -0.000819645 0 0.000163929 0.00147536 -0.00245893 0.00163929 -0.00213108 -0.000163929 0.000327858 0.000819645 -0.00180322 0.000819645 -0.00131143 0.000491787 -0.00131143 0.000655716 -0.00131143 0.000163929 -0.0011475 0.000983574 -0.00262286 0.000819645 -0.00327858zm-0.0421297 -0.0396708l-0.0413101 -0.206878 -0.000163929 0 0.0106554 -0.00196715 0.0118029 -0.00147536 0.0103275 -0.000819645 0.0103275 -0.000491787 0.011639 0 0.0104915 0.000491787 0.0103275 0.000819645 0.0104915 0.00147536 0.0103275 0.00163929 0.0103275 0.00229501 0.0101636 0.00262286 0.00868823 0.00278679 -0.0662273 0.200321 -0.000491787 -0.000163929 -0.00131143 -0.000327858 -0.00147536 -0.000327858 -0.00147536 -0.000327858 -0.00163929 -0.000163929 -0.00180322 -0.000163929 -0.00196715 -0.000163929 -0.000491787 0 -0.00213108 0.000163929 -0.00213108 0.000163929 -0.000983574 0.000163929 -0.00180322 0.000327858 -0.000163929 0z"/>
  </g>
 </g>
</svg>
