<?xml version="1.0" encoding="UTF-8"?>
<!DOCTYPE svg PUBLIC "-//W3C//DTD SVG 1.1//EN" "http://www.w3.org/Graphics/SVG/1.1/DTD/svg11.dtd">
<!-- Creator: CorelDRAW -->
<svg xmlns="http://www.w3.org/2000/svg" xml:space="preserve" width="58px" height="28px" style="shape-rendering:geometricPrecision; text-rendering:geometricPrecision; image-rendering:optimizeQuality; fill-rule:evenodd; clip-rule:evenodd"
viewBox="0 0 17.2362 8.24333"
 xmlns:xlink="http://www.w3.org/1999/xlink">
 <defs>
  <style type="text/css">
   <![CDATA[
    .fil0 {fill:#EC6C1E}
   ]]>
  </style>
 </defs>
 <g id="Capa_x0020_1">
  <metadata id="CorelCorpID_0Corel-Layer"/>
  <path class="fil0" d="M0.363947 3.35589c5.59091,1.13362 6.33473,-3.99103 12.3721,-3.28898 2.66446,0.30978 3.80658,1.5312 4.29054,2.42372 0.0679746,0.125328 0.0449623,0.276501 -0.0569995,0.374568 -0.102316,0.0984215 -0.251364,0.113291 -0.37032,0.0371736 -1.23346,-0.791974 -3.84871,-2.00808 -7.20955,-0.968637 -0.141614,0.0435462 -0.230122,0.180911 -0.213837,0.330668 0.0166396,0.149756 0.133471,0.263755 0.281457,0.274022 1.4834,0.103024 2.69349,0.865259 3.14949,1.6275 0.680808,1.13893 1.46252,1.56271 2.68464,1.58891 0.60469,0.0130993 1.12335,-0.189054 1.49296,-0.396872 0.115769,-0.0651423 0.252426,-0.0488567 0.35014,0.041068 0.0980675,0.0899247 0.127806,0.226582 0.0764714,0.35014 -0.330314,0.795515 -1.27913,1.94046 -3.99386,2.35574 -2.58941,0.396164 -4.77698,-0.127452 -6.21118,-0.6801 -0.143384,-0.0552293 -0.223042,-0.208172 -0.187992,-0.360053 0.0350494,-0.152235 0.173477,-0.25278 0.326065,-0.237203 0.416698,0.0428381 0.825608,0.0665584 1.13503,0.0456704 0.896769,-0.109043 1.43171,-0.529635 0.91093,-0.926861 -0.521138,-0.397226 -2.00348,0 -5.20926,-0.529635 -1.66785,-0.275793 -2.97247,-0.931464 -3.84021,-1.49686 -0.123912,-0.0807198 -0.172769,-0.236495 -0.118247,-0.37563 0.0548753,-0.139843 0.196489,-0.217731 0.341643,-0.188346z"/>
 </g>
</svg>
