<?xml version="1.0" encoding="UTF-8"?>
<!DOCTYPE svg PUBLIC "-//W3C//DTD SVG 1.1//EN" "http://www.w3.org/Graphics/SVG/1.1/DTD/svg11.dtd">
<!-- Creator: CorelDRAW -->
<svg xmlns="http://www.w3.org/2000/svg" xml:space="preserve" width="59px" height="29px" style="shape-rendering:geometricPrecision; text-rendering:geometricPrecision; image-rendering:optimizeQuality; fill-rule:evenodd; clip-rule:evenodd"
viewBox="0 0 17.941 8.74439"
 xmlns:xlink="http://www.w3.org/1999/xlink">
 <defs>
  <style type="text/css">
   <![CDATA[
    .str0 {stroke:#9D9E9E;stroke-width:0.314989;stroke-dasharray:0.629978 0.314989}
    .fil0 {fill:none}
   ]]>
  </style>
 </defs>
 <g id="Capa_x0020_1">
  <metadata id="CorelCorpID_0Corel-Layer"/>
  <path class="fil0 str0" d="M0.529327 3.5887c5.7176,1.1593 6.47828,-4.08146 12.6524,-3.3635 2.72484,0.316799 3.89283,1.56589 4.38776,2.47864 0.0695148,0.128168 0.0459812,0.282766 -0.0582911,0.383056 -0.104634,0.100652 -0.25706,0.115858 -0.378711,0.0380159 -1.2614,-0.80992 -3.93592,-2.05358 -7.37292,-0.990587 -0.144823,0.0445329 -0.235337,0.185011 -0.218682,0.338161 0.0170167,0.15315 0.136495,0.269732 0.287835,0.280232 1.51702,0.105358 2.75453,0.884866 3.22085,1.66437 0.696235,1.16474 1.49566,1.59812 2.74547,1.62491 0.618392,0.0133961 1.14881,-0.193338 1.52679,-0.405865 0.118392,-0.0666184 0.258146,-0.0499638 0.358074,0.0419986 0.10029,0.0919623 0.130702,0.231716 0.0782042,0.358074 -0.337799,0.813541 -1.30811,1.98443 -4.08436,2.40912 -2.64808,0.405141 -4.88523,-0.13034 -6.35192,-0.69551 -0.146633,-0.0564808 -0.228096,-0.212889 -0.192252,-0.368211 0.0358436,-0.155684 0.177408,-0.258508 0.333454,-0.242578 0.42614,0.0438088 0.844316,0.0680666 1.16075,0.0467053 0.917089,-0.111513 1.46416,-0.541636 0.931571,-0.947864 -0.532947,-0.406227 -2.04888,0 -5.3273,-0.541636 -1.70565,-0.282042 -3.03983,-0.952571 -3.92723,-1.53077 -0.12672,-0.0825489 -0.176684,-0.241854 -0.120927,-0.384142 0.0561188,-0.143012 0.200941,-0.222665 0.349385,-0.192614z"/>
 </g>
</svg>
