<?xml version="1.0" encoding="UTF-8"?>
<!DOCTYPE svg PUBLIC "-//W3C//DTD SVG 1.1//EN" "http://www.w3.org/Graphics/SVG/1.1/DTD/svg11.dtd">
<!-- Creator: CorelDRAW -->
<svg xmlns="http://www.w3.org/2000/svg" xml:space="preserve" width="16px" height="16px" style="shape-rendering:geometricPrecision; text-rendering:geometricPrecision; image-rendering:optimizeQuality; fill-rule:evenodd; clip-rule:evenodd"
viewBox="0 0 0.649998 0.64995"
 xmlns:xlink="http://www.w3.org/1999/xlink">
 <defs>
  <style type="text/css">
   <![CDATA[
    .fil0 {fill:#7FBA31}
    .fil1 {fill:#2B2A29;fill-rule:nonzero}
   ]]>
  </style>
 </defs>
 <g id="Capa_x0020_1">
  <metadata id="CorelCorpID_0Corel-Layer"/>
  <g>
   <path class="fil0" d="M0.324999 0.0237225c0.166342,0 0.301276,0.134886 0.301276,0.301276 0,0.16639 -0.134934,0.301229 -0.301276,0.301229 -0.16639,0 -0.301276,-0.134839 -0.301276,-0.301229 0,-0.16639 0.134886,-0.301276 0.301276,-0.301276z"/>
   <path id="1" class="fil1" d="M0.649998 0.324999l-0.0474451 0 0 0 -0.000332116 -0.0143284 -0.00109124 -0.0140437 -0.00175547 -0.0139489 -0.00246714 -0.0136642 -0.00308393 -0.0133795 -0.00374816 -0.0131897 -0.00436495 -0.0129051 -0.00498173 -0.0125729 -0.00550363 -0.0122883 -0.00616786 -0.0119562 -0.00668976 -0.011624 -0.00721165 -0.0112445 -0.00778099 -0.0109124 -0.008208 -0.0104854 -0.0087299 -0.0101058 -0.0091569 -0.00958391 -0.0096788 -0.00920435 -0.0100584 -0.0087299 -0.0105328 -0.00825544 -0.0108649 -0.00778099 -0.0112445 -0.00721165 -0.0116715 -0.00668976 -0.0119087 -0.00607297 -0.0123357 -0.00555107 -0.0125729 -0.00502918 -0.0128576 -0.00436495 -0.0131423 -0.00370072 -0.0134744 -0.00308393 -0.0136167 -0.00246714 -0.0139489 -0.00175547 -0.0140437 -0.00109124 -0.0143284 -0.000332116 0 -0.0474451 0.0167007 0.000427006 0.0165109 0.00128102 0.0162262 0.00204014 0.015989 0.0028467 0.0157518 0.00365327 0.0154197 0.00436495 0.015135 0.00512407 0.0147554 0.0057883 0.0144233 0.00649998 0.0139963 0.00721165 0.0135693 0.00782844 0.0132372 0.00844522 0.0127627 0.00910946 0.0122408 0.00958391 0.0117664 0.0102481 0.0112919 0.0107226 0.01077 0.0112919 0.0102481 0.0118138 0.00963135 0.0122883 0.00901457 0.0127153 0.00844522 0.0131423 0.00782844 0.0136167 0.00721165 0.0140437 0.00654742 0.0143759 0.00583575 0.0148503 0.00502918 0.0150875 0.00441239 0.0153722 0.00365327 0.0157518 0.0028467 0.0160364 0.00204014 0.0162262 0.00128102 0.0165109 0.000427006 0.0167007 0 0zm-0.324999 0.324951l0 -0.0474451 0 0 0.0143284 -0.000332116 0.0140437 -0.00109124 0.0139489 -0.00175547 0.0136167 -0.00246714 0.0134744 -0.00308393 0.0131423 -0.00370072 0.0128576 -0.00436495 0.0125729 -0.00502918 0.0123357 -0.00555107 0.0119087 -0.00607297 0.0116715 -0.00668976 0.0112445 -0.00721165 0.0108649 -0.00773355 0.0105328 -0.00830289 0.0100584 -0.00868245 0.00963135 -0.00920435 0.00920435 -0.00963135 0.0087299 -0.0100584 0.008208 -0.0104854 0.00778099 -0.0109124 0.00721165 -0.0112919 0.00668976 -0.0115766 0.00616786 -0.0119562 0.00550363 -0.0122883 0.00498173 -0.0125729 0.00436495 -0.0129051 0.00374816 -0.0131897 0.00308393 -0.0133795 0.00246714 -0.0136642 0.00175547 -0.0139489 0.00109124 -0.0140437 0.000332116 -0.0143284 0.0474451 0 -0.000427006 0.0167007 -0.00128102 0.0165109 -0.00204014 0.0162262 -0.0028467 0.0160364 -0.00365327 0.0157518 -0.00441239 0.0153722 -0.00502918 0.0150875 -0.00583575 0.0148503 -0.00654742 0.0143759 -0.00721165 0.0140437 -0.00782844 0.0135693 -0.00844522 0.0131897 -0.00901457 0.0127153 -0.00963135 0.0122883 -0.0102481 0.0117664 -0.0107226 0.0113394 -0.0113394 0.0107226 -0.0117664 0.0102007 -0.0122408 0.00963135 -0.0127627 0.00906201 -0.0132372 0.00844522 -0.0135693 0.00782844 -0.0139963 0.00721165 -0.0144233 0.00649998 -0.0147554 0.0057883 -0.015135 0.00512407 -0.0154197 0.00436495 -0.0157518 0.00365327 -0.015989 0.0028467 -0.0162262 0.00204014 -0.0165109 0.00128102 -0.0167007 0.000427006 0 0zm-0.324999 -0.324951l0.0474451 0 0 0 0.000332116 0.0143284 0.00109124 0.0140437 0.00175547 0.0139489 0.00246714 0.0136642 0.00308393 0.013427 0.00370072 0.0131423 0.00436495 0.0128576 0.00502918 0.0126204 0.00555107 0.0122883 0.00607297 0.0119562 0.00668976 0.0115766 0.00721165 0.0112919 0.00778099 0.0108649 0.00825544 0.0105328 0.0087299 0.0100584 0.00920435 0.0096788 0.00958391 0.0091569 0.0101058 0.00868245 0.0105328 0.00830289 0.0108649 0.00773355 0.0112445 0.00721165 0.0115766 0.00668976 0.0120036 0.00607297 0.0122883 0.00555107 0.0126204 0.00502918 0.0128576 0.00436495 0.0131423 0.00370072 0.013427 0.00308393 0.0136642 0.00246714 0.0139489 0.00175547 0.0140437 0.00109124 0.0143284 0.000332116 0 0.0474451 -0.0167007 -0.000427006 -0.0165109 -0.00128102 -0.0162262 -0.00204014 -0.0160364 -0.0028467 -0.0157043 -0.00365327 -0.0154197 -0.00436495 -0.015135 -0.00512407 -0.0148029 -0.0057883 -0.0143759 -0.00649998 -0.0139963 -0.00721165 -0.0136642 -0.00782844 -0.0131423 -0.00844522 -0.0127627 -0.00906201 -0.0122408 -0.00963135 -0.0118138 -0.0102007 -0.0112919 -0.01077 -0.0107226 -0.0112919 -0.0102481 -0.0117664 -0.00958391 -0.0122408 -0.00910946 -0.0127627 -0.00844522 -0.0131897 -0.00782844 -0.0135693 -0.00721165 -0.0140437 -0.00649998 -0.0143759 -0.0057883 -0.0148029 -0.00512407 -0.015135 -0.00436495 -0.0154197 -0.00365327 -0.0157043 -0.0028467 -0.0160364 -0.00204014 -0.0162262 -0.00128102 -0.0165109 -0.000427006 -0.0167007 0 0zm0.324999 -0.324999l0 0.0474451 0 0 -0.0143284 0.000332116 -0.0140437 0.00109124 -0.0139489 0.00175547 -0.0136642 0.00246714 -0.013427 0.00308393 -0.0131423 0.00370072 -0.0128576 0.00436495 -0.0126204 0.00502918 -0.0122883 0.00555107 -0.0120036 0.00607297 -0.0115766 0.00668976 -0.011197 0.00721165 -0.0109124 0.00778099 -0.0105328 0.00825544 -0.0101058 0.0087299 -0.00958391 0.00920435 -0.00920435 0.00958391 -0.0087299 0.0101058 -0.00825544 0.0105328 -0.00778099 0.0109124 -0.00721165 0.011197 -0.00668976 0.0115766 -0.00607297 0.0120036 -0.00555107 0.0122883 -0.00502918 0.0126204 -0.00436495 0.0128576 -0.00370072 0.0131423 -0.00308393 0.013427 -0.00246714 0.0136642 -0.00175547 0.0139489 -0.00109124 0.0140437 -0.000332116 0.0143284 -0.0474451 0 0.000427006 -0.0167007 0.00128102 -0.0165109 0.00204014 -0.0162262 0.0028467 -0.0160364 0.00365327 -0.0157043 0.00436495 -0.0154197 0.00512407 -0.015135 0.0057883 -0.0148029 0.00649998 -0.0143759 0.00721165 -0.0139963 0.00782844 -0.0136642 0.00844522 -0.0131897 0.00910946 -0.0127153 0.00958391 -0.0122408 0.0102481 -0.0118138 0.0107226 -0.0112919 0.0112919 -0.0107226 0.0118138 -0.0102481 0.0122408 -0.00958391 0.0127153 -0.00910946 0.0131897 -0.00844522 0.0136642 -0.00782844 0.0139963 -0.00721165 0.0143759 -0.00649998 0.0148029 -0.0057883 0.015135 -0.00512407 0.0154197 -0.00436495 0.0157043 -0.00365327 0.0160364 -0.0028467 0.0162262 -0.00204014 0.0165109 -0.00128102 0.0167007 -0.000427006 0 0z"/>
  </g>
 </g>
</svg>
