<?xml version="1.0" encoding="UTF-8"?>
<!DOCTYPE svg PUBLIC "-//W3C//DTD SVG 1.1//EN" "http://www.w3.org/Graphics/SVG/1.1/DTD/svg11.dtd">
<!-- Creator: CorelDRAW -->
<svg xmlns="http://www.w3.org/2000/svg" xml:space="preserve" width="57px" height="33px" style="shape-rendering:geometricPrecision; text-rendering:geometricPrecision; image-rendering:optimizeQuality; fill-rule:evenodd; clip-rule:evenodd"
viewBox="0 0 11.5513 6.62877"
 xmlns:xlink="http://www.w3.org/1999/xlink">
 <defs>
  <style type="text/css">
   <![CDATA[
    .fil0 {fill:#5674B7}
   ]]>
  </style>
 </defs>
 <g id="Capa_x0020_1">
  <metadata id="CorelCorpID_0Corel-Layer"/>
  <path class="fil0" d="M10.1077 0.231735c0.481295,-0.30906 0.96259,-0.30906 1.44389,0l0 5.67268c0,0.398911 -0.332667,0.724352 -0.74025,0.724352l-10.0711 0c-0.407583,-0.000240888 -0.74025,-0.32544 -0.74025,-0.724352l0 -5.67268c0.481295,0.30906 0.96259,0.30906 1.44413,0 0.481295,-0.30906 0.96259,-0.30906 1.44389,0 0.481295,0.30906 0.96259,0.30906 1.44389,0 0.481295,-0.30906 0.96259,-0.30906 1.44389,0 0.481295,0.30906 0.96259,0.30906 1.44389,0 0.481295,-0.30906 0.962831,-0.30906 1.44389,0 0.481295,0.30906 0.96259,0.30906 1.44413,0z"/>
 </g>
</svg>
