<?xml version="1.0" encoding="UTF-8"?>
<!DOCTYPE svg PUBLIC "-//W3C//DTD SVG 1.1//EN" "http://www.w3.org/Graphics/SVG/1.1/DTD/svg11.dtd">
<!-- Creator: CorelDRAW -->
<svg xmlns="http://www.w3.org/2000/svg" xml:space="preserve" width="58px" height="33px" style="shape-rendering:geometricPrecision; text-rendering:geometricPrecision; image-rendering:optimizeQuality; fill-rule:evenodd; clip-rule:evenodd"
viewBox="0 0 11.9101 6.91777"
 xmlns:xlink="http://www.w3.org/1999/xlink">
 <defs>
  <style type="text/css">
   <![CDATA[
    .str0 {stroke:#9D9E9E;stroke-width:0.195431;stroke-dasharray:0.390862 0.195431}
    .fil0 {fill:none}
   ]]>
  </style>
 </defs>
 <g id="Capa_x0020_1">
  <metadata id="CorelCorpID_0Corel-Layer"/>
  <path class="fil0 str0" d="M10.3481 0.332721c0.488089,-0.313422 0.976178,-0.313422 1.46427,0l0 5.75275c0,0.404542 -0.337363,0.734576 -0.750699,0.734576l-10.2132 0c-0.413336,-0.000244289 -0.750699,-0.330034 -0.750699,-0.734576l0 -5.75275c0.488089,0.313422 0.976178,0.313422 1.46451,0 0.488089,-0.313422 0.976178,-0.313422 1.46427,0 0.488089,0.313422 0.976178,0.313422 1.46427,0 0.488089,-0.313422 0.976178,-0.313422 1.46427,0 0.488089,0.313422 0.976178,0.313422 1.46427,0 0.488089,-0.313422 0.976422,-0.313422 1.46427,0 0.488089,0.313422 0.976178,0.313422 1.46451,0z"/>
 </g>
</svg>
